<svg id="Calque_1" data-name="Calque 1" xmlns="http://www.w3.org/2000/svg" viewBox="0 0 141.73 141.73"><defs><style>.cls-1{fill:#a0afc1;}.cls-2{fill:#fff;}</style></defs><circle class="cls-1" cx="70.87" cy="70.87" r="66.03"/><path class="cls-2" d="M54.08,73.61a9.06,9.06,0,0,0,4.42,1.26C62,74.87,63,72.66,63,71c0-2.79-2.55-4-5.16-4h-1.5V65h1.5c2,0,4.45-1,4.45-3.38,0-1.59-1-3-3.5-3a7.23,7.23,0,0,0-4,1.32l-.71-2a9.54,9.54,0,0,1,5.22-1.53c3.92,0,5.7,2.33,5.7,4.75,0,2.06-1.23,3.81-3.68,4.7v.06a5.2,5.2,0,0,1,4.45,5.12c0,3.2-2.49,6-7.27,6a10.19,10.19,0,0,1-5.19-1.35Z"/><path class="cls-2" d="M70.13,56.31a37.69,37.69,0,0,1,5.68-.43c3.84,0,6.57.89,8.38,2.57a9.53,9.53,0,0,1,2.91,7.43,10.92,10.92,0,0,1-3,8c-1.93,1.93-5.12,3-9.14,3a44.13,44.13,0,0,1-4.85-.24ZM72.8,74.59a16,16,0,0,0,2.7.16c5.71,0,8.81-3.19,8.81-8.78,0-4.88-2.73-8-8.38-8a15.4,15.4,0,0,0-3.13.28Z"/><path class="cls-2" d="M70.13,33.91s5.65,7.61,7.64,9.16c1.78-2.14,3.12-2.46,4-2.39,5.67,1.29,9.81,4.9,11.16,7,4.45,6.83,4.38,16.72,4.38,16.72a2.51,2.51,0,0,0,2,0S101,54,97.68,47.65A27,27,0,0,0,83.55,35.3,27.3,27.3,0,0,0,70.13,33.91Z"/><path class="cls-2" d="M70.52,99s-5.45-7.74-7.41-9.35c-1.83,2.1-3.18,2.38-4,2.29-5.63-1.43-9.68-5.14-11-7.24-4.28-6.94-4-16.83-4-16.83a2.6,2.6,0,0,0-2,0s-2,10.3,1.18,16.76A26.89,26.89,0,0,0,57.14,97.24,27.19,27.19,0,0,0,70.52,99Z"/></svg>