<svg id="Calque_1" data-name="Calque 1" xmlns="http://www.w3.org/2000/svg" viewBox="0 0 141.73 141.73"><defs><style>.cls-1{fill:#a0afc1;}.cls-2{fill:#fff;}.cls-3{fill:#4a494a;}</style></defs><circle class="cls-1" cx="66.06" cy="51.8" r="43.35"/><polygon class="cls-2" points="84.78 34.57 84.78 48.94 72.15 48.94 65.72 54.37 65.72 34.57 84.78 34.57"/><path class="cls-2" d="M85.84,63.15c.39,3.95-2.86,7.49-7.26,7.91a6.77,6.77,0,0,1-1.35,0c.16.51-11.8-2.64-19.74-10.1-5.27-5-10.64-19.06-10.64-20,0-4.44,3.22-8,7.17-8s7.17,3.56,7.17,8A8.15,8.15,0,0,1,57.36,48c1.39,3.57,1.13,8.26,5.28,11.92,2.44,2.16,4.88,2.61,7.29,3.6a7.7,7.7,0,0,1,7.27-6.75C81.6,56.37,85.46,59.23,85.84,63.15Z"/><path class="cls-3" d="M28.25,122l-2.53,7.66H22.47l8.28-24.37h3.8l8.32,24.37H39.5L36.9,122Zm8-2.46-2.39-7c-.54-1.59-.9-3-1.26-4.45h-.08c-.36,1.45-.76,2.93-1.23,4.41l-2.38,7.06Z"/><path class="cls-3" d="M46.24,117.87c0-2.24-.07-4.05-.14-5.71H49l.15,3h.07a6.89,6.89,0,0,1,6.22-3.4c4.23,0,7.42,3.58,7.42,8.9,0,6.29-3.84,9.4-8,9.4a6.14,6.14,0,0,1-5.39-2.75h-.07v9.52H46.24Zm3.15,4.67a7.4,7.4,0,0,0,.14,1.3,4.92,4.92,0,0,0,4.78,3.73c3.36,0,5.31-2.75,5.31-6.77,0-3.5-1.84-6.51-5.2-6.51a5.08,5.08,0,0,0-4.81,3.95,5,5,0,0,0-.22,1.3Z"/><path class="cls-3" d="M66.83,117.87c0-2.24-.07-4.05-.14-5.71h2.86l.14,3h.07a6.91,6.91,0,0,1,6.22-3.4c4.24,0,7.42,3.58,7.42,8.9,0,6.29-3.84,9.4-8,9.4a6.14,6.14,0,0,1-5.39-2.75H70v9.52H66.83ZM70,122.54a7.4,7.4,0,0,0,.14,1.3,4.92,4.92,0,0,0,4.78,3.73c3.36,0,5.32-2.75,5.32-6.77,0-3.5-1.85-6.51-5.21-6.51a5.08,5.08,0,0,0-4.81,3.95,5,5,0,0,0-.22,1.3Z"/><path class="cls-3" d="M89.19,121.49c.07,4.31,2.82,6.08,6,6.08a11.39,11.39,0,0,0,4.84-.91l.55,2.28A14.15,14.15,0,0,1,94.76,130c-5.39,0-8.6-3.55-8.6-8.83s3.1-9.44,8.21-9.44c5.71,0,7.23,5,7.23,8.25a13.14,13.14,0,0,1-.11,1.48Zm9.33-2.28c0-2-.83-5.17-4.41-5.17-3.22,0-4.63,3-4.88,5.17Z"/><path class="cls-3" d="M105.55,104h3.18v25.68h-3.18Z"/></svg>