<svg width="45" height="58" viewBox="0 0 45 58" fill="none" xmlns="http://www.w3.org/2000/svg">
<circle cx="22.5" cy="22.5" r="22.5" fill="#00303C"/>
<path d="M11.928 17.9645C11.9358 18.2589 11.9472 18.55 11.9755 18.8397C12.0445 19.5459 12.2225 20.2281 12.4445 20.8993C12.8957 22.2636 13.5808 23.5098 14.3634 24.7082C15.1965 25.9841 16.1876 27.1313 17.2094 28.2552C18.1785 29.3211 19.2242 30.3038 20.3831 31.16C21.4927 31.9798 22.6806 32.6583 24.0039 33.0781C24.8492 33.3463 25.7131 33.4886 26.6017 33.4876C26.9262 33.4872 27.2423 33.4306 27.5617 33.394C28.5698 33.2782 29.4997 32.9413 30.3387 32.3721C31.0869 31.8644 31.7301 31.2302 32.3809 30.6081C32.8274 30.1813 32.932 29.5903 32.6821 29.025C32.5121 28.6406 32.2653 28.3073 31.9681 28.0128C31.4436 27.493 30.8723 27.0253 30.3128 26.5449C29.9557 26.2383 29.5771 25.9615 29.1586 25.7431C28.7733 25.542 28.3718 25.396 27.9312 25.3822C27.3394 25.3637 26.8475 25.5968 26.4081 25.9739C25.9393 26.3764 25.4898 26.7988 25.0534 27.2361C24.7469 27.5432 24.3743 27.7028 23.9357 27.7029C23.5249 27.7031 23.1502 27.5702 22.7905 27.3914C22.0871 27.0418 21.4984 26.5344 20.9361 25.9979C19.9517 25.059 19.1113 23.9955 18.3207 22.8934C17.8774 22.2754 17.5316 21.6013 17.3867 20.8458C17.2442 20.1023 17.4239 19.4671 18.0754 19.0162C18.61 18.6462 19.1009 18.2227 19.5717 17.7767C20.0198 17.3524 20.2468 16.8261 20.2253 16.2042C20.2052 15.6217 20.0197 15.0889 19.7278 14.588C19.3372 13.9178 18.9275 13.2593 18.5076 12.6073C18.1986 12.1275 17.8411 11.6904 17.3688 11.3593C17.0159 11.1119 16.6302 11.004 16.2019 11.1044C15.8964 11.1761 15.638 11.3385 15.4029 11.5406C15.0704 11.8266 14.7351 12.1094 14.4008 12.3932C12.6817 13.8528 11.9036 15.7319 11.928 17.9645Z" fill="white"/>
<path d="M18.2742 55.6774C18.2742 56.3339 18.2697 56.9544 18.2776 57.5748C18.2794 57.717 18.2473 57.7653 18.0996 57.7597C17.786 57.7477 17.4711 57.7454 17.1577 57.7604C16.9943 57.7682 16.972 57.7076 16.9724 57.5617C16.9771 55.6703 16.977 53.7789 16.9726 51.8876C16.9723 51.7496 16.9956 51.6932 17.1477 51.7C17.4407 51.713 17.735 51.7117 18.0281 51.7004C18.1685 51.695 18.2275 51.7293 18.208 51.879C18.1959 51.972 18.2057 52.068 18.2057 52.2047C18.7614 51.6465 19.416 51.5822 20.1038 51.7112C20.6092 51.8059 21.0316 52.0664 21.3472 52.4835C22.0246 53.3789 21.9283 54.8189 21.1545 55.583C20.4403 56.2883 19.0405 56.4347 18.2742 55.6774ZM19.3768 52.7334C18.7044 52.7322 18.2417 53.2209 18.2469 53.9267C18.2521 54.6307 18.7047 55.1089 19.3665 55.1098C20.0373 55.1106 20.4862 54.6412 20.488 53.9371C20.4899 53.2084 20.0525 52.7346 19.3768 52.7334Z" fill="#00303C"/>
<path d="M23.9323 55.6642C23.9323 56.3154 23.9243 56.9206 23.9371 57.5253C23.9411 57.7146 23.8918 57.7708 23.704 57.7605C23.3977 57.7438 23.0897 57.7514 22.7826 57.7584C22.6701 57.7609 22.6309 57.7324 22.6312 57.611C22.6348 55.6921 22.6353 53.7731 22.6304 51.8541C22.63 51.714 22.6839 51.6992 22.7978 51.7016C23.0981 51.708 23.3988 51.7109 23.6989 51.7006C23.8332 51.6959 23.8816 51.7349 23.866 51.871C23.8551 51.9659 23.8639 52.0631 23.8639 52.2081C24.3538 51.6962 24.9467 51.6027 25.5729 51.6786C26.2125 51.7562 26.736 52.0581 27.0944 52.6125C27.7054 53.5575 27.5279 54.958 26.7273 55.6609C25.9681 56.3277 24.5989 56.3775 23.9323 55.6642ZM25.0393 55.1098C25.7131 55.1078 26.1486 54.6326 26.1462 53.9017C26.1439 53.1997 25.693 52.7317 25.0205 52.7334C24.3608 52.735 23.9058 53.2194 23.9051 53.9208C23.9043 54.6293 24.3645 55.1117 25.0393 55.1098Z" fill="#00303C"/>
<path d="M10 56.1394C10.4324 55.1585 10.8504 54.2101 11.2686 53.2618C11.6761 52.3378 12.0868 51.4153 12.4879 50.4885C12.5405 50.3669 12.6009 50.3291 12.7281 50.3326C13.0694 50.3421 13.4112 50.339 13.7527 50.3338C13.8459 50.3324 13.8974 50.3578 13.9374 50.4486C14.7635 52.3222 15.5929 54.1942 16.4209 56.067C16.4285 56.0841 16.4255 56.1059 16.4289 56.1394C15.9948 56.1394 15.5659 56.1361 15.1372 56.1417C15.0332 56.1431 15.0187 56.0775 14.9899 56.0061C14.8562 55.6747 14.716 55.346 14.5856 55.0133C14.5501 54.9226 14.5032 54.893 14.4072 54.8935C13.608 54.8975 12.8087 54.8976 12.0094 54.8934C11.9101 54.8929 11.8678 54.9284 11.8325 55.0191C11.7032 55.3523 11.5627 55.6811 11.4297 56.0128C11.3968 56.0948 11.3632 56.1448 11.2576 56.1427C10.8481 56.1345 10.4384 56.1394 10 56.1394ZM14.1119 53.8503C13.8124 53.1322 13.5196 52.4301 13.2131 51.6951C12.9059 52.4326 12.614 53.1337 12.3155 53.8503C12.9247 53.8503 13.5069 53.8503 14.1119 53.8503Z" fill="#00303C"/>
<path d="M29.2774 54.2325C29.391 54.7114 29.747 55.0319 30.2526 55.0958C30.7203 55.1549 31.1684 55.0954 31.541 54.7664C31.6161 54.7001 31.6539 54.7061 31.7158 54.7782C31.8677 54.9554 32.0195 55.1343 32.1874 55.2954C32.3104 55.4135 32.3091 55.4864 32.1819 55.6029C31.8179 55.9359 31.3892 56.1106 30.9094 56.1608C30.1328 56.2419 29.389 56.1442 28.7592 55.6342C28.0758 55.0806 27.8581 54.3318 28.0089 53.485C28.1607 52.6325 28.6774 52.0592 29.4886 51.7925C30.2129 51.5543 30.9321 51.5993 31.605 51.9875C32.3269 52.4039 32.7272 53.2642 32.62 54.0978C32.6011 54.2448 32.526 54.2332 32.4288 54.2331C31.4586 54.2322 30.4884 54.2326 29.5183 54.2326C29.4433 54.2325 29.3684 54.2325 29.2774 54.2325ZM30.3151 53.4863C30.6361 53.4863 30.9571 53.4825 31.2779 53.4884C31.3946 53.4905 31.4191 53.4608 31.378 53.3476C31.2336 52.9496 30.9394 52.7474 30.5417 52.6772C29.9816 52.5783 29.4362 52.866 29.2873 53.3314C29.2529 53.439 29.2537 53.4932 29.3932 53.4891C29.7003 53.4801 30.0078 53.4863 30.3151 53.4863Z" fill="#00303C"/>
<path d="M33.4577 53.05C33.4577 52.0971 33.4619 51.1441 33.4536 50.1912C33.4522 50.0316 33.4969 49.9949 33.6473 50.0005C33.9679 50.0126 34.2892 50.009 34.6101 50.0017C34.7262 49.999 34.759 50.0346 34.7588 50.1519C34.7554 52.0992 34.7554 54.0465 34.7589 55.9938C34.7591 56.1144 34.7212 56.1441 34.6079 56.1418C34.2803 56.1349 33.9521 56.1327 33.6246 56.1425C33.4898 56.1466 33.4539 56.1067 33.4547 55.9709C33.4604 54.9973 33.4577 54.0236 33.4577 53.05Z" fill="#00303C"/>
</svg>
