<svg id="Calque_1" data-name="Calque 1" xmlns="http://www.w3.org/2000/svg" viewBox="0 0 299 299.68"><defs><style>.cls-1{fill:#3b4754;}</style></defs><path class="cls-1" d="M150.48.32C67.91.32,1,67.38,1,150.14S67.91,300,150.48,300,300,232.9,300,150.14,233.05.32,150.48.32Zm-1.17,90.26h65.74v49.68H171.49L149.31,159Zm44.36,126.14a22.67,22.67,0,0,1-4.66,0c.55,1.77-40.7-9.12-68.09-34.91-18.17-17.22-36.69-65.89-36.69-69.21C84.23,97.25,95.33,85,109,85s24.73,12.3,24.73,27.65c0,10.54-5.32,19.77-13.21,24.44,4.79,12.34,3.89,28.56,18.21,41.21,8.41,7.46,16.83,9,25.14,12.44.9-12,11.31-22.09,25.08-23.33,15.17-1.42,28.48,8.47,29.8,22S208.84,215.27,193.67,216.72Z" transform="translate(-1 -0.32)"/></svg>