<svg xmlns="http://www.w3.org/2000/svg" viewBox="0 0 141.73 141.73"><defs><style>.cls-1{fill:#a0afc1;}.cls-2{fill:#4a494a;}.cls-3,.cls-4{fill:#fff;}.cls-4,.cls-5{stroke:#9eaec0;stroke-miterlimit:10;}.cls-5{fill:none;}</style></defs><g id="Calque_1" data-name="Calque 1"><circle class="cls-1" cx="66.06" cy="51.8" r="43.35"/></g><g id="Calque_3" data-name="Calque 3"><path class="cls-2" d="M22.42,114.1a19.56,19.56,0,0,1,3.73-.33,6.48,6.48,0,0,1,4.33,1.15,3.31,3.31,0,0,1,1.32,2.79,3.76,3.76,0,0,1-2.68,3.47v0a4.08,4.08,0,0,1,3.26,4,4.28,4.28,0,0,1-1.33,3.16c-1.11,1-2.89,1.48-5.47,1.48a24.42,24.42,0,0,1-3.16-.19Zm2,6.47h1.85c2.16,0,3.42-1.13,3.42-2.65,0-1.85-1.4-2.58-3.47-2.58a8.8,8.8,0,0,0-1.8.14Zm0,7.57a11,11,0,0,0,1.71.09c2.11,0,4.06-.77,4.06-3.07,0-2.15-1.86-3-4.08-3H24.46Z"/><path class="cls-2" d="M35.06,121.88c0-1.34,0-2.48-.09-3.54h1.8l.07,2.23h.1a3.4,3.4,0,0,1,3.14-2.49,2.49,2.49,0,0,1,.58.07v1.95a2.85,2.85,0,0,0-3.47,2.58,6.68,6.68,0,0,0-.09,1v6h-2Z"/><path class="cls-2" d="M52.76,123.92c0,4.2-2.9,6-5.64,6-3.08,0-5.44-2.25-5.44-5.83,0-3.8,2.48-6,5.62-6S52.76,120.45,52.76,123.92Zm-9,.12c0,2.48,1.43,4.36,3.45,4.36s3.45-1.86,3.45-4.41c0-1.92-1-4.36-3.4-4.36S43.76,121.88,43.76,124Z"/><path class="cls-2" d="M63.46,129.26a7.44,7.44,0,0,1-3.26.66c-3.42,0-5.65-2.32-5.65-5.79a5.76,5.76,0,0,1,6.1-6,6.92,6.92,0,0,1,2.86.58l-.47,1.6a4.69,4.69,0,0,0-2.39-.54c-2.6,0-4,1.92-4,4.29a3.89,3.89,0,0,0,3.94,4.24,6,6,0,0,0,2.53-.56Z"/><path class="cls-2" d="M65.88,113H68v7.08h0a3.89,3.89,0,0,1,1.48-1.45,4.25,4.25,0,0,1,2.11-.59c1.52,0,4,.94,4,4.85v6.76H73.48v-6.52c0-1.83-.68-3.38-2.63-3.38a3,3,0,0,0-2.76,2.07,2.42,2.42,0,0,0-.14,1v6.85H65.88Z"/><path class="cls-2" d="M88.39,126.59c0,1.17,0,2.2.1,3.1H86.66l-.12-1.86h-.05a4.24,4.24,0,0,1-3.75,2.11c-1.78,0-3.91-1-3.91-5v-6.63h2.06v6.28c0,2.16.66,3.61,2.53,3.61a2.9,2.9,0,0,0,2.91-2.93v-7h2.06Z"/><path class="cls-2" d="M91.82,121.88c0-1.34,0-2.48-.09-3.54h1.8l.07,2.23h.1a3.4,3.4,0,0,1,3.14-2.49,2.65,2.65,0,0,1,.59.07v1.95a3,3,0,0,0-.71-.07A2.89,2.89,0,0,0,94,122.68a5.45,5.45,0,0,0-.1,1v6h-2Z"/><path class="cls-2" d="M100.41,124.39a3.63,3.63,0,0,0,3.89,3.94,7.39,7.39,0,0,0,3.14-.59l.35,1.48a9.14,9.14,0,0,1-3.77.7c-3.5,0-5.58-2.3-5.58-5.72s2-6.12,5.32-6.12c3.7,0,4.69,3.26,4.69,5.35a8.55,8.55,0,0,1-.07,1Zm6-1.48c0-1.31-.54-3.35-2.86-3.35-2.09,0-3,1.92-3.17,3.35Z"/><rect class="cls-3" x="46.35" y="39.73" width="32.42" height="32.42" rx="1.56"/><rect class="cls-4" x="55.3" y="29.49" width="32.42" height="32.42" rx="1.56"/><line class="cls-5" x1="62.11" y1="43.13" x2="79.35" y2="43.13"/><line class="cls-5" x1="62.11" y1="48.88" x2="79.35" y2="48.88"/><line class="cls-5" x1="62.95" y1="53.04" x2="74.62" y2="53.04"/></g></svg>