<svg id="Calque_2" data-name="Calque 2" xmlns="http://www.w3.org/2000/svg" viewBox="0 0 300 299.86"><defs><style>.cls-1,.cls-5{fill:#3b4754;}.cls-2{fill:#9dadbf;}.cls-2,.cls-4{stroke:#fff;}.cls-2,.cls-3,.cls-4,.cls-5,.cls-6{stroke-miterlimit:10;}.cls-3,.cls-6{fill:#fff;}.cls-3,.cls-5,.cls-6{stroke:#3b4754;}.cls-4{fill:none;}.cls-5,.cls-6{stroke-width:3px;}</style></defs><path class="cls-1" d="M150,0A149.93,149.93,0,1,0,300,149.91,149.93,149.93,0,0,0,150,0Zm75,179.45a5.41,5.41,0,0,1-5.4,5.43H194v30a5.41,5.41,0,0,1-5.4,5.39H87.17a5.41,5.41,0,0,1-5.4-5.39V113.56a5.41,5.41,0,0,1,5.4-5.4h25.58v-30a5.4,5.4,0,0,1,5.4-5.4H219.54a5.4,5.4,0,0,1,5.4,5.4Z" transform="translate(0)"/><line class="cls-2" x1="139.76" y1="154.2" x2="180.02" y2="154.2"/><rect class="cls-3" x="113.37" y="72.73" width="111.83" height="112.15" rx="1.56"/><line class="cls-4" x1="137.05" y1="119.59" x2="196.25" y2="119.59"/><line class="cls-4" x1="137.05" y1="139.32" x2="196.25" y2="139.32"/><line class="cls-5" x1="136.4" y1="101.3" x2="209.14" y2="101.3"/><line class="cls-6" x1="136.4" y1="123.55" x2="209.14" y2="123.55"/><line class="cls-5" x1="135.94" y1="143.09" x2="185.19" y2="143.09"/></svg>