<svg width="45" height="57" viewBox="0 0 45 57" fill="none" xmlns="http://www.w3.org/2000/svg">
<path d="M6.48493 53.1917C6.76963 53.3107 7.01379 53.4417 7.19975 53.6556C7.87093 54.4272 7.59641 55.6295 6.65206 56.0469C6.25281 56.2233 5.82865 56.2986 5.39512 56.3015C4.32357 56.3086 3.25194 56.3012 2.18039 56.3071C2.03968 56.3079 1.99974 56.2722 2.00009 56.132C2.00467 54.2601 2.00471 52.3883 2 50.5164C1.99966 50.3749 2.04158 50.3412 2.18104 50.342C3.18787 50.3479 4.19482 50.3392 5.2016 50.3479C5.65042 50.3517 6.08974 50.4308 6.48838 50.6485C7.46917 51.1841 7.52988 52.4823 6.60703 53.1126C6.57776 53.1326 6.54745 53.1513 6.48493 53.1917ZM4.3721 55.282C4.55867 55.282 4.74527 55.2836 4.93179 55.2817C5.18317 55.2791 5.43441 55.2693 5.67434 55.1848C5.97105 55.0803 6.12268 54.8791 6.13322 54.5857C6.14764 54.1824 5.93314 53.9137 5.49568 53.8438C4.83348 53.738 4.16365 53.8128 3.49753 53.792C3.3933 53.7887 3.4072 53.8553 3.4072 53.918C3.40716 54.3283 3.41204 54.7387 3.40418 55.1489C3.40189 55.2696 3.44999 55.2863 3.55417 55.284C3.82666 55.2781 4.09944 55.282 4.3721 55.282ZM4.31209 51.3669C4.03295 51.3669 3.79566 51.3735 3.55905 51.3643C3.43682 51.3595 3.4018 51.3965 3.40431 51.5167C3.41204 51.8848 3.41199 52.2531 3.40431 52.6212C3.4018 52.7412 3.43678 52.7761 3.55888 52.7738C3.95373 52.7663 4.34883 52.7728 4.74385 52.77C4.95951 52.7684 5.17565 52.756 5.37983 52.68C5.64083 52.5829 5.81617 52.4143 5.83064 52.1206C5.84968 51.7333 5.64377 51.4954 5.21469 51.4113C4.90196 51.35 4.58531 51.3724 4.31209 51.3669Z" fill="#00303C"/>
<path d="M24.251 52.2112C24.9528 51.6707 25.6988 51.5724 26.4807 51.8277C27.2076 52.0651 27.572 52.6171 27.6225 53.3509C27.6873 54.2921 27.6344 55.2362 27.6492 56.1789C27.6509 56.2878 27.6051 56.3067 27.5087 56.3055C27.1635 56.3012 26.8179 56.296 26.4731 56.3075C26.3241 56.3124 26.2806 56.2762 26.2827 56.1238C26.2918 55.429 26.2867 54.734 26.2867 54.039C26.2867 53.9964 26.2867 53.9539 26.2867 53.9113C26.2857 53.249 25.9825 52.882 25.4212 52.8637C24.7436 52.8416 24.2864 53.2221 24.2619 53.8755C24.2368 54.5412 24.2529 55.2084 24.2511 55.8749C24.2509 55.9671 24.2435 56.06 24.2529 56.1512C24.2655 56.2725 24.2211 56.3092 24.0976 56.3065C23.7453 56.2988 23.3925 56.2961 23.0404 56.3074C22.8945 56.3121 22.8802 56.2528 22.881 56.1337C22.8856 55.3891 22.8833 54.6445 22.8833 53.8999C22.8833 52.666 22.8866 51.4321 22.8792 50.1983C22.8782 50.0375 22.9198 49.9942 23.0812 50.0006C23.4115 50.0138 23.743 50.0111 24.0735 50.0014C24.2125 49.9974 24.2564 50.0331 24.2546 50.1758C24.2464 50.7926 24.2511 51.4096 24.2511 52.0266C24.251 52.0746 24.251 52.1225 24.251 52.2112Z" fill="#00303C"/>
<path d="M41.2032 54.3461C40.6781 54.3461 40.1527 54.3542 39.6278 54.3418C39.4388 54.3373 39.4517 54.404 39.5084 54.5311C39.6976 54.9553 40.0473 55.1716 40.4919 55.231C40.9837 55.2967 41.4565 55.2309 41.8475 54.8917C41.9311 54.8192 41.9693 54.839 42.0314 54.9081C42.2028 55.0991 42.3743 55.2907 42.5579 55.47C42.6605 55.5702 42.645 55.6355 42.5498 55.7249C42.1644 56.0867 41.6996 56.2741 41.1784 56.3263C40.3607 56.4083 39.5774 56.3082 38.9147 55.7836C38.1957 55.2145 37.9681 54.4454 38.1265 53.5762C38.2846 52.7092 38.8232 52.1223 39.6659 51.8457C40.434 51.5937 41.1993 51.6387 41.915 52.0416C42.6736 52.4688 43.0972 53.3559 42.981 54.2094C42.9634 54.3391 42.9059 54.3485 42.8003 54.3478C42.2679 54.3441 41.7356 54.3461 41.2032 54.3461ZM41.6974 53.5796C41.6918 53.533 41.6928 53.4972 41.6828 53.4648C41.525 52.9554 40.9722 52.6529 40.3718 52.7464C39.9437 52.813 39.621 53.0152 39.4698 53.4339C39.4426 53.5093 39.4162 53.5824 39.5552 53.5816C40.2663 53.5773 40.9775 53.5796 41.6974 53.5796Z" fill="#00303C"/>
<path d="M14.2749 51.7009C15.2634 51.7102 16.0056 51.98 16.5238 52.6831C17.5418 54.0642 16.7066 56.0225 14.9853 56.2998C14.0955 56.4432 13.2548 56.3242 12.5656 55.7013C11.8684 55.0712 11.6905 54.2667 11.9239 53.3885C12.1517 52.5315 12.7669 52.0318 13.6146 51.7963C13.8714 51.7249 14.1357 51.6918 14.2749 51.7009ZM14.3873 55.2464C15.097 55.2483 15.5712 54.7679 15.5733 54.0448C15.5755 53.2943 15.1155 52.8081 14.4022 52.8071C13.6879 52.8061 13.2098 53.2968 13.2107 54.03C13.2116 54.7532 13.6868 55.2445 14.3873 55.2464Z" fill="#00303C"/>
<path d="M32.244 55.7839C31.6869 56.3029 31.0542 56.4266 30.3609 56.3126C29.4646 56.1653 28.8831 55.5691 28.8439 54.6692C28.8032 53.7348 28.8315 52.7976 28.8239 51.8616C28.8229 51.7362 28.8938 51.7489 28.9747 51.7492C29.3199 51.7502 29.6654 51.7566 30.0104 51.7461C30.1465 51.742 30.1762 51.782 30.1754 51.9113C30.1712 52.67 30.1683 53.4289 30.182 54.1874C30.1935 54.8281 30.5058 55.1752 31.0512 55.1897C31.6869 55.2066 32.1142 54.846 32.1576 54.223C32.2105 53.4657 32.1727 52.7062 32.1749 51.9478C32.1754 51.7963 32.2019 51.7373 32.3727 51.7451C32.7101 51.7605 33.0488 51.7548 33.3866 51.7469C33.5079 51.7441 33.5425 51.778 33.5421 51.899C33.5379 53.3173 33.5379 54.7356 33.542 56.1539C33.5424 56.274 33.5095 56.3096 33.3872 56.3066C33.0566 56.2986 32.7254 56.2983 32.3947 56.3067C32.2708 56.3099 32.2309 56.2722 32.2418 56.1527C32.2518 56.0434 32.244 55.9326 32.244 55.7839Z" fill="#00303C"/>
<path d="M20.0876 56.3485C19.1596 56.3368 18.3597 56.046 17.839 55.2467C17.1146 54.1346 17.439 52.2855 19.2759 51.8055C20.0877 51.5934 20.8877 51.6474 21.6027 52.1541C21.8107 52.3014 21.9634 52.4963 22.0943 52.7114C22.165 52.8275 22.1759 52.9002 22.0251 52.9677C21.7707 53.0815 21.524 53.2132 21.2805 53.3485C21.1657 53.4123 21.1076 53.4021 21.026 53.29C20.5748 52.6705 19.6347 52.6337 19.1396 53.2075C18.7147 53.7001 18.7949 54.5961 19.2935 54.9952C19.7331 55.3471 20.6092 55.4009 21.0465 54.7548C21.1024 54.6722 21.1407 54.6416 21.2438 54.7002C21.5046 54.8485 21.7718 54.9869 22.0431 55.1155C22.1722 55.1767 22.1628 55.2397 22.1017 55.3422C21.7729 55.894 21.266 56.1814 20.6469 56.3038C20.4633 56.34 20.2772 56.3577 20.0876 56.3485Z" fill="#00303C"/>
<path d="M9.8034 52.3362C10.2153 51.8861 10.6961 51.7355 11.2308 51.7054C11.3531 51.6985 11.4102 51.7185 11.4045 51.8617C11.392 52.1732 11.3978 52.4856 11.4022 52.7976C11.4036 52.8993 11.3964 52.9483 11.2639 52.93C10.4244 52.8139 9.88259 53.2757 9.87641 54.1099C9.87145 54.7836 9.87132 55.4574 9.8787 56.131C9.88025 56.271 9.84101 56.3112 9.69943 56.3071C9.35446 56.2971 9.00888 56.2993 8.66377 56.3064C8.54431 56.3088 8.50454 56.2778 8.50489 56.1542C8.50912 54.7358 8.50912 53.3175 8.50489 51.8992C8.5045 51.7754 8.54456 51.7445 8.6639 51.7471C8.99463 51.7543 9.32583 51.7559 9.65643 51.7464C9.78769 51.7427 9.81368 51.7917 9.80543 51.9056C9.79645 52.03 9.8034 52.1556 9.8034 52.3362Z" fill="#00303C"/>
<path d="M36.0936 52.333C36.4892 51.9007 36.9594 51.746 37.4824 51.7047C37.6483 51.6915 37.7044 51.7373 37.6953 51.9087C37.6796 52.2057 37.6871 52.5043 37.693 52.802C37.6951 52.9116 37.6738 52.9463 37.5498 52.9288C36.7255 52.8121 36.1755 53.2748 36.1671 54.093C36.1604 54.7525 36.156 55.4123 36.1715 56.0714C36.1763 56.2764 36.1076 56.3159 35.9204 56.3077C35.5974 56.2935 35.273 56.2981 34.9496 56.3066C34.8233 56.3099 34.7951 56.2675 34.7954 56.1496C34.7992 54.7313 34.7989 53.313 34.7958 51.8946C34.7956 51.788 34.8182 51.7444 34.9372 51.7469C35.2823 51.7543 35.6277 51.7523 35.9729 51.7477C36.0662 51.7464 36.1001 51.7736 36.0954 51.8674C36.0885 52.0056 36.0936 52.1445 36.0936 52.333Z" fill="#00303C"/>
<circle cx="22.5" cy="22.5" r="22.5" fill="#00303C"/>
<path fill-rule="evenodd" clip-rule="evenodd" d="M15 13C15 12.4477 15.4477 12 16 12H29C29.5523 12 30 12.4477 30 13V31C30 31.5523 29.5523 32 29 32H16C15.4477 32 15 31.5523 15 31V13ZM22.7192 16.9652L21.9879 16.9651C21.0378 16.9649 20.0878 16.9647 19.1378 16.9673C19.0418 16.9676 19.0123 16.945 19.0153 16.8479C19.0228 16.6097 19.0235 16.3709 19.0152 16.1327C19.0115 16.0269 19.0419 15.9998 19.1494 16C20.9941 16.0027 22.8387 16.0026 24.6834 16.0025H24.6843L25.7855 16.0024C25.8375 16.0024 25.8896 16.0027 25.9417 16.0029C26.073 16.0034 26.2043 16.0039 26.3355 16.0011C26.4022 15.9997 26.4226 16.0209 26.4218 16.0864C26.4185 16.344 26.4165 16.6018 26.4227 16.8594C26.4248 16.9467 26.3995 16.9674 26.3122 16.9672C25.3496 16.9648 24.3869 16.965 23.4243 16.9651L22.7192 16.9652ZM21.2865 21.0026L21.9107 21.0028L22.5319 21.0027C23.2501 21.0024 23.9682 21.0021 24.6864 21.005C24.7837 21.0053 24.8098 20.9811 24.8066 20.8843C24.7987 20.6383 24.8018 20.3919 24.805 20.1457V20.1457V20.1457L24.8052 20.1339C24.8061 20.0632 24.7922 20.0343 24.7097 20.0345C22.8437 20.037 20.9776 20.037 19.1116 20.0345C19.029 20.0343 19.0153 20.0633 19.0162 20.1339C19.0194 20.384 19.022 20.6344 19.0151 20.8843C19.0125 20.9786 19.0349 21.0058 19.1351 21.0053C19.8522 21.002 20.5693 21.0023 21.2865 21.0026ZM21.8986 24.6637L21.2788 24.6635C20.5649 24.6633 19.8509 24.663 19.137 24.666C19.0387 24.6664 19.0124 24.6402 19.0151 24.5447C19.022 24.2949 19.0203 24.0448 19.0157 23.7949C19.0142 23.7183 19.038 23.6993 19.1142 23.6993C20.9787 23.7014 22.8432 23.7014 24.7077 23.6993C24.7851 23.6992 24.8068 23.7201 24.8055 23.7955C24.8011 24.0493 24.7999 24.3032 24.806 24.5569C24.808 24.6439 24.783 24.666 24.6953 24.6657C23.964 24.6632 23.2326 24.6634 22.5012 24.6636L21.8986 24.6637ZM22.5536 27.3574C22.3394 27.3573 22.1252 27.3571 21.9111 27.3571C21.6963 27.3571 21.4814 27.3573 21.2666 27.3574C20.5601 27.3578 19.8536 27.3582 19.1472 27.3543C19.0347 27.3536 19.0127 27.3885 19.0157 27.4893C19.0226 27.7278 19.0234 27.9667 19.0152 28.2051C19.0118 28.302 19.0382 28.3262 19.1355 28.3257C19.7625 28.3228 20.3894 28.3231 21.0164 28.3234C21.2054 28.3235 21.3943 28.3235 21.5832 28.3235C21.8072 28.3235 22.0312 28.3235 22.2552 28.3234C23.0657 28.3231 23.8762 28.3229 24.6867 28.3261C24.787 28.3265 24.8095 28.2993 24.8067 28.205C24.7996 27.9666 24.7996 27.7277 24.8066 27.4893C24.8095 27.3883 24.7873 27.3536 24.675 27.3543C23.9679 27.3582 23.2607 27.3578 22.5536 27.3574Z" fill="white"/>
</svg>
