<svg width="84" height="106" viewBox="0 0 84 106" fill="none" xmlns="http://www.w3.org/2000/svg">
<path fill-rule="evenodd" clip-rule="evenodd" d="M48.8538 0.812286L82.9954 25.3458C84.0777 26.1236 84.324 27.6306 83.5455 28.7119C82.7669 29.7932 81.2584 30.0393 80.176 29.2615L75.0729 25.5945V52.0864C75.0729 56.0823 71.8304 59.3216 67.8305 59.3216H29.8771C25.8772 59.3216 22.6347 56.0823 22.6347 52.0864V25.5945L17.5316 29.2615C16.4492 30.0393 14.9407 29.7932 14.1621 28.7119C13.3836 27.6306 13.6299 26.1236 14.7122 25.3458L48.8538 0.812286ZM27.4629 22.125V52.0864C27.4629 53.4184 28.5438 54.4982 29.8771 54.4982H41.3418V34.8817C41.3418 33.2834 42.6388 31.9877 44.2387 31.9877H53.4689C55.0688 31.9877 56.3658 33.2834 56.3658 34.8817V54.4982H67.8305C69.1638 54.4982 70.2447 53.4184 70.2447 52.0864V22.125L48.8538 6.75393L27.4629 22.125ZM54.4345 34.8817V54.4982H43.2731V34.8817C43.2731 34.349 43.7054 33.917 44.2387 33.917H53.4689C54.0022 33.917 54.4345 34.349 54.4345 34.8817ZM0.499993 79.9241C0.499993 78.6574 1.52791 77.6305 2.79591 77.6305H26.9597C28.0937 77.6305 29.2101 77.9102 30.2098 78.4447L43.248 85.4158C43.5812 85.5939 43.9534 85.6872 44.3313 85.6872H57.0957C58.3424 85.6872 59.4576 86.2497 60.2008 87.1347L74.0186 80.7658C75.7902 79.9492 77.8922 80.4817 79.0602 82.043L80.1775 83.5365C81.4589 85.2493 81.2192 87.656 79.625 89.0829L62.8968 104.056C61.6334 105.187 59.9968 105.812 58.3005 105.812H36.4575C34.7975 105.812 33.1933 105.213 31.9401 104.126L21.519 95.0806C21.0277 94.6541 20.3782 94.456 19.7322 94.5356L3.07691 96.5874C1.81844 96.7425 0.672445 95.849 0.517254 94.5918C0.362062 93.3345 1.25645 92.1897 2.51492 92.0346L19.1702 89.9828C21.1082 89.744 23.0566 90.3383 24.5307 91.6177L34.9517 100.663C35.3695 101.025 35.9042 101.225 36.4575 101.225H58.3005C58.8659 101.225 59.4115 101.017 59.8326 100.64L76.2479 85.9465L75.6047 85.0867L60.3113 92.1357C60.0991 92.2335 59.8833 92.3007 59.6679 92.34C59.3839 93.3533 58.5319 94.1429 57.448 94.3154L40.9134 96.9465C40.4126 97.0262 39.9418 96.6851 39.8621 96.1847C39.7823 95.6844 40.1236 95.2141 40.6245 95.1344L57.1591 92.5033C57.4623 92.4551 57.7111 92.2619 57.8392 92.0014C57.227 91.6336 56.7623 91.0229 56.6093 90.2744H44.3313C43.1974 90.2744 42.081 89.9947 41.0812 89.4602L28.0431 82.4892C27.7098 82.311 27.3377 82.2178 26.9597 82.2178H2.79591C1.52791 82.2178 0.499993 81.1909 0.499993 79.9241Z" fill="#8DC640"/>
</svg>
