<svg width="161" height="106" viewBox="0 0 161 106" fill="none" xmlns="http://www.w3.org/2000/svg">
<path fill-rule="evenodd" clip-rule="evenodd" d="M145.113 63.2332C146.008 64.1822 147.535 64.2612 148.523 63.4097C149.511 62.5583 149.587 61.0987 148.692 60.1497L133.149 43.6694C132.321 42.7916 131.741 41.7272 131.462 40.5771L128.363 27.7805C128.084 26.6304 127.503 25.566 126.676 24.6882L117.934 15.4193C117.129 14.5661 116.197 13.8321 115.169 13.2412L118.296 10.5469C118.691 10.2063 119.302 10.2379 119.66 10.6175L132.485 24.216C132.843 24.5956 133.453 24.6272 133.849 24.2867C134.244 23.9461 134.274 23.3622 133.916 22.9826L121.091 9.38416C120.017 8.24535 118.185 8.15048 116.999 9.17225L113.661 12.0491C113.57 12.1273 113.485 12.2098 113.407 12.296L101.404 5.90446L101.682 4.67377L124.304 6.60705C124.913 6.65908 125.48 6.92984 125.89 7.36473L140.591 22.9532C140.993 23.379 141.216 23.9315 141.216 24.5035L141.227 35.8036C141.23 39.1752 142.775 42.3836 145.455 44.5862L156.592 53.7392C157.606 54.5721 159.129 54.4648 159.996 53.4995C160.862 52.5341 160.743 51.0764 159.729 50.2435L148.592 41.0904C146.984 39.7689 146.057 37.8438 146.055 35.8209L146.044 24.5208C146.043 22.8046 145.375 21.1471 144.17 19.8697L129.469 4.28126C128.238 2.97658 126.538 2.1643 124.712 2.00822L101.666 0.0387518C99.4872 -0.147425 97.5108 1.24269 97.0508 3.28465L96.6087 5.24728C96.2054 7.0378 97.078 8.87496 98.7563 9.76866L112.488 17.0808C113.188 17.4534 113.819 17.9339 114.355 18.5028L123.097 27.7717C123.373 28.0643 123.566 28.4191 123.659 28.8025L126.759 41.5991C127.223 43.5159 128.191 45.2898 129.57 46.7528L145.113 63.2332ZM16.3747 41.731C15.4786 40.7808 13.9499 40.7017 12.9604 41.5542C11.9709 42.4068 11.8953 43.8682 12.7914 44.8184L28.3537 61.3196C29.1826 62.1985 29.7641 63.2642 30.043 64.4157L33.1462 77.2285C33.4251 78.3801 34.0066 79.4458 34.8355 80.3247L43.5593 89.5748C43.7136 89.7384 43.7731 89.9643 43.7179 90.1775C43.7023 90.2375 43.6889 90.2977 43.6774 90.3578L42.6114 91.2764C42.2531 91.5851 41.7102 91.5922 41.3402 91.2932L28.4519 80.8769C28.0431 80.5466 27.4332 80.5944 27.0897 80.9838C26.7461 81.3732 26.7989 81.9566 27.2077 82.287L40.096 92.7032C41.2061 93.6004 42.8346 93.5788 43.9095 92.6528L44.1245 92.4675C44.4515 92.9475 44.9278 93.3392 45.5162 93.5722L60.0908 99.3446L59.861 100.364L37.2099 98.4288C36.6003 98.3767 36.0329 98.1056 35.6223 97.6701L20.9021 82.0619C20.5001 81.6356 20.2771 81.0824 20.2766 80.5096L20.2638 67.0677C20.2619 65.0422 19.334 63.1147 17.7239 61.7915L4.88119 51.237C3.86641 50.403 2.34059 50.5105 1.47319 51.477C0.605783 52.4436 0.725257 53.9032 1.74004 54.7372L14.5828 65.2917C15.1195 65.7327 15.4288 66.3752 15.4294 67.0504L15.4422 80.4924C15.4438 82.2107 16.1126 83.8703 17.3188 85.1493L32.039 100.757C33.271 102.064 34.973 102.877 36.8017 103.033L59.8769 105.005C62.0582 105.192 64.0372 103.8 64.4977 101.755L64.9021 99.9601C65.3456 97.9915 64.2481 95.9955 62.2975 95.223L48.5661 89.7846C48.5048 88.5782 48.0119 87.4092 47.1426 86.4874L38.4188 77.2373C38.1425 76.9444 37.9487 76.5891 37.8557 76.2053L34.7524 63.3925C34.2876 61.4733 33.3185 59.697 31.937 58.2322L16.3747 41.731ZM53.9664 52.5498C53.9664 44.8616 57.4042 37.8848 62.9303 32.9962L72.4819 44.1996L61.1262 53.0792V62.2979H55.9014C54.6514 59.2719 53.9664 55.9817 53.9664 52.5498ZM75.4147 44.4956L64.5068 31.7015C69.2861 28.0614 75.3549 25.8752 81.9953 25.8752C88.7829 25.8752 94.9732 28.1594 99.7997 31.9458L90.0954 34.8746V42.5477L96.5094 44.4338L95.8037 45.5578L87.0151 48.7076L85.1051 57.8346L97.3388 62.0862L100.648 69.4651H103.666C101.303 72.2068 98.3753 74.4959 95.0457 76.1664L95.0474 76.1568L74.4456 72.5299L66.2442 74.62C62.2476 72.0292 58.999 68.4823 56.8497 64.3376H63.1659V54.0735L75.4147 44.4956ZM68.7744 76.0801C72.7031 78.0844 77.2001 79.2244 81.9953 79.2244C85.3763 79.2244 88.6091 78.6577 91.5989 77.6208L74.5241 74.6148L68.7744 76.0801ZM105.26 67.4254C108.273 63.1632 110.024 58.0377 110.024 52.5498C110.024 45.1077 106.803 38.3323 101.585 33.4722L101.603 33.5322L92.1351 36.3895V41.0214L99.6692 43.2369L97.1561 47.2399L88.7778 50.2426L87.469 56.4968L98.8398 60.4485L101.968 67.4254H105.26ZM81.9953 20.7759C63.8092 20.7759 48.8671 34.8939 48.8671 52.5498C48.8671 70.2056 63.8092 84.3237 81.9953 84.3237C100.181 84.3237 115.123 70.2056 115.123 52.5498C115.123 34.8939 100.181 20.7759 81.9953 20.7759Z" fill="#8DC640"/>
</svg>
