<svg id="Calque_1" data-name="Calque 1" xmlns="http://www.w3.org/2000/svg" viewBox="0 0 512 511.99"><defs><style>.cls-1{fill:#555454;}.cls-2{fill:#fff;}</style></defs><path class="cls-1" d="M512,424.51A87.48,87.48,0,0,1,424.51,512h-337A87.48,87.48,0,0,1,0,424.51v-337A87.49,87.49,0,0,1,87.49,0h337A87.49,87.49,0,0,1,512,87.49Z"/><path class="cls-2" d="M351.31,512V315.42h66l9.88-76.6H351.31V189.9c0-22.18,6.15-37.29,38-37.29l40.57,0V84.07c-7-.93-31.1-3-59.12-3-58.48,0-98.53,35.69-98.53,101.26v56.5H206.05v76.6h66.14V512Z"/></svg>