<svg id="Calque_1" data-name="Calque 1" xmlns="http://www.w3.org/2000/svg" viewBox="0 0 512 512"><defs><style>.cls-1{fill:#555454;}.cls-2{fill:#fff;}</style></defs><path class="cls-1" d="M512,424.5A87.49,87.49,0,0,1,424.51,512H87.5A87.5,87.5,0,0,1,0,424.5v-337A87.5,87.5,0,0,1,87.5,0h337A87.49,87.49,0,0,1,512,87.49Z"/><path class="cls-2" d="M118.38,209.21h57.89v186.1H118.38Zm29-92.52a33.54,33.54,0,1,1-33.55,33.52,33.54,33.54,0,0,1,33.55-33.52"/><path class="cls-2" d="M212.57,209.21H268v25.43h.78c7.72-14.63,26.59-30.06,54.74-30.06,58.51,0,69.33,38.53,69.33,88.65V395.31H335.1V304.82c0-21.58-.42-49.35-30.07-49.35-30.1,0-34.69,23.5-34.69,47.78v92.06H212.57Z"/></svg>