<svg width="112" height="106" viewBox="0 0 112 106" fill="none" xmlns="http://www.w3.org/2000/svg">
<path fill-rule="evenodd" clip-rule="evenodd" d="M58.7693 3.52832L52.2052 3.52832V9.53596H58.7693V3.52832ZM61.7693 2.52832C61.7693 1.42375 60.8739 0.52832 59.7693 0.52832H51.2052C50.1006 0.52832 49.2052 1.42375 49.2052 2.52832V10.536C49.2052 11.6405 50.1006 12.536 51.2052 12.536H54.4873V30.1428C51.1689 30.2876 48.0155 31.1168 45.1703 32.4712C44.6774 31.4889 43.6611 30.8148 42.4873 30.8148H23.5898C23.0376 30.8148 22.5898 30.3671 22.5898 29.8148V26.7429H25.8717C26.9763 26.7429 27.8717 25.8475 27.8717 24.7429V16.7353C27.8717 15.6307 26.9763 14.7353 25.8717 14.7353H17.3076C16.203 14.7353 15.3076 15.6307 15.3076 16.7353V24.7429C15.3076 25.8475 16.2031 26.7429 17.3076 26.7429H20.5898V29.8148C20.5898 31.4717 21.933 32.8148 23.5898 32.8148H42.4873C42.8933 32.8148 43.2428 33.0568 43.3994 33.4043C36.3994 37.4643 31.6626 44.8084 31.6626 52.6873C31.6626 54.3273 31.8194 55.8725 32.1005 57.3229H17L17 48.4849C18.7252 48.0605 20 46.5638 20 44.7825C20 42.6712 18.2091 40.9597 16 40.9597C13.7909 40.9597 12 42.6712 12 44.7825C12 46.5638 13.2748 48.0605 15 48.4849L15 57.3229H8C6.34314 57.3229 5 58.666 5 60.3229V64.5717H2C0.895433 64.5717 0 65.4671 0 66.5717V74.5793C0 75.6839 0.895431 76.5793 2 76.5793H10.5641C11.6687 76.5793 12.5641 75.6839 12.5641 74.5793V66.5717C12.5641 65.4671 11.6687 64.5717 10.5641 64.5717H7V60.3229C7 59.7706 7.44771 59.3229 8 59.3229H32.5812C34.2373 65.0712 37.8407 69.1248 40.9505 71.4767C42.1485 72.3827 42.8211 73.5712 42.8211 74.6868V80.6979H40.525V97.9138H45.8267C46.1532 100.082 47.429 101.903 49.0941 103.176C51.0302 104.656 53.5961 105.5 56.3282 105.5C59.0603 105.5 61.6262 104.656 63.5623 103.176C65.2274 101.903 66.5032 100.082 66.8297 97.9138H71.4057V80.6979H68.2453V74.8421C68.2453 73.6786 68.9772 72.4348 70.2653 71.4997C71.342 70.718 72.474 69.7401 73.5676 68.5693H99.4355V71.5733C99.4355 72.6779 100.331 73.5733 101.436 73.5733H110C111.104 73.5733 112 72.6779 112 71.5733V63.5657C112 62.4611 111.104 61.5657 110 61.5657H101.436C100.331 61.5657 99.4355 62.4611 99.4355 63.5657V66.5693H92V53.8924C93.7252 53.468 95 51.9713 95 50.19C95 48.0787 93.2091 46.3671 91 46.3671C88.7909 46.3671 87 48.0787 87 50.19C87 51.9713 88.2748 53.468 90 53.8924V66.5693H75.2427C77.8216 63.1264 79.8502 58.4808 79.8502 52.6873C79.8502 46.6988 77.0112 41.0422 72.5386 36.8901V32.5638C72.5386 32.0116 72.9863 31.5638 73.5386 31.5638H88.3334V34.5678C88.3334 35.6724 89.2288 36.5678 90.3334 36.5678H98.8975C100.002 36.5678 100.897 35.6724 100.897 34.5678V26.5602C100.897 25.4556 100.002 24.5602 98.8975 24.5602H90.3334C89.2288 24.5602 88.3334 25.4556 88.3334 26.5602V29.5638H73.5386C71.8817 29.5638 70.5386 30.907 70.5386 32.5638V35.2163C66.591 32.2418 61.6987 30.3465 56.4873 30.139V19.9886H64.4681C64.9277 21.6153 66.4827 22.8123 68.3301 22.8123C70.5392 22.8123 72.3301 21.1007 72.3301 18.9894C72.3301 16.8781 70.5392 15.1666 68.3301 15.1666C66.4833 15.1666 64.9288 16.3627 64.4686 17.9886H56.4873V12.536H59.7693C60.8739 12.536 61.7693 11.6405 61.7693 10.536V2.52832ZM18.3076 17.7353V23.7429H24.8717V17.7353H18.3076ZM70.5386 40.527C66.8002 36.692 61.427 34.12 55.5332 34.12C44.5089 34.12 35.6626 43.1559 35.6626 52.6873C35.6626 60.4516 39.8715 65.6455 43.3633 68.2863C45.2327 69.7001 46.8211 71.9566 46.8211 74.6868V80.6979H52.3799C52.3144 74.4485 52.0594 69.213 51.6529 64.9455C49.2966 64.3727 47.1115 63.4569 45.4293 62.2457C44.0806 61.2747 42.9956 60.0697 42.4587 58.638C41.9105 57.176 41.9715 55.5746 42.753 53.9314C43.4058 52.5588 44.0734 51.4377 44.7569 50.611C45.4257 49.8019 46.1997 49.1655 47.0903 48.9678C48.0636 48.7518 48.9424 49.1052 49.6439 49.7868C50.3113 50.4354 50.8622 51.4121 51.3321 52.6211C52.2438 54.9667 52.9743 58.5189 53.4943 63.2894C54.3507 63.4412 55.2282 63.5458 56.1097 63.5985C56.7048 63.634 57.2957 63.6456 57.8776 63.6328C58.4974 58.5443 59.3973 54.4214 60.4527 51.5319C61.0032 50.0249 61.6188 48.7881 62.3037 47.9169C62.9712 47.0677 63.8588 46.38 64.9535 46.4327C66.0399 46.485 66.8976 47.2476 67.5568 48.2267C68.2337 49.232 68.847 50.6724 69.4022 52.5295C70.1168 54.9197 70.1771 57.0101 69.6667 58.7969C69.1539 60.592 68.0873 62.0013 66.6878 63.0542C64.7993 64.4748 62.3074 65.2497 59.6759 65.523C59.2112 69.9318 58.9496 75.042 58.9765 80.6979H64.2453V74.8421C64.2453 71.9995 65.9615 69.6811 67.9154 68.2627C71.5333 65.6364 75.8502 60.3777 75.8502 52.6873C75.8502 48.3228 73.8921 44.0418 70.698 40.6923H70.5386V40.527ZM61.6417 97.9138H51.0147C51.2343 98.3538 51.5964 98.7951 52.1311 99.2039C53.1205 99.9604 54.5961 100.5 56.3282 100.5C58.0603 100.5 59.5359 99.9604 60.5254 99.2039C61.0601 98.7951 61.4221 98.3538 61.6417 97.9138ZM54.38 80.6979H56.9765C56.9503 75.1371 57.1997 70.0654 57.6533 65.6364C57.0986 65.6422 56.5429 65.6279 55.9905 65.5949C55.2259 65.5492 54.4587 65.4672 53.699 65.3502C54.0803 69.5797 54.3174 74.6843 54.38 80.6979ZM59.9114 63.4826C60.5133 58.7024 61.3626 54.8701 62.3313 52.2181C62.8487 50.8017 63.3774 49.7872 63.876 49.1529C64.3921 48.4964 64.7272 48.4241 64.8573 48.4304C64.9958 48.4371 65.3651 48.5525 65.8978 49.3437C66.4129 50.1087 66.9565 51.3311 67.486 53.1024C68.1187 55.2185 68.1257 56.9101 67.7436 58.2476C67.3639 59.5768 66.5782 60.6338 65.4854 61.4559C64.0545 62.5324 62.0979 63.2007 59.9114 63.4826ZM51.4289 62.8204C50.9225 58.4679 50.2448 55.3443 49.4679 53.3456C49.042 52.2496 48.6189 51.5795 48.2501 51.2212C47.9153 50.8959 47.6956 50.8821 47.5238 50.9203C47.2694 50.9767 46.8518 51.2159 46.2983 51.8853C45.7596 52.537 45.1742 53.4972 44.5591 54.7904C43.9935 55.9798 43.9871 57.0178 44.3314 57.9357C44.687 58.8839 45.4543 59.7993 46.5979 60.6227C47.8805 61.5461 49.5609 62.2983 51.4289 62.8204ZM45.525 89.7635V86.6397L66.4057 90.0365V92.9138H64.891L45.525 89.7635ZM52.1915 85.6979L66.4057 88.0102V85.6979H52.1915ZM45.525 91.7898L52.4349 92.9138H45.525V91.7898ZM3 67.5717V73.5793H9.5641V67.5717H3ZM102.436 70.5733V64.5657H109V70.5733H102.436ZM91.3334 27.5602H97.8975V33.5678H91.3334V27.5602Z" fill="#8DC640"/>
</svg>
