<svg id="Calque_1" data-name="Calque 1" xmlns="http://www.w3.org/2000/svg" viewBox="0 0 512 512"><defs><style>.cls-1{fill:#545454;}.cls-2{fill:#fff;stroke:#b7b570;stroke-miterlimit:10;}</style></defs><path class="cls-1" d="M512,424.51A87.49,87.49,0,0,1,424.51,512h-337A87.49,87.49,0,0,1,0,424.51V87.5A87.49,87.49,0,0,1,87.49,0h337A87.49,87.49,0,0,1,512,87.5Z" transform="translate(0 -0.01)"/><path class="cls-2" d="M337.53,459.1H174.47c-72.36,0-131.24-58.88-131.24-131.25V184.16c0-72.36,58.88-131.24,131.24-131.24H337.53c72.36,0,131.24,58.88,131.24,131.24V327.85C468.77,400.22,409.89,459.1,337.53,459.1Zm-163.06-377A102.19,102.19,0,0,0,72.4,184.16V327.85A102.19,102.19,0,0,0,174.47,429.93H337.53A102.19,102.19,0,0,0,439.6,327.85V184.16A102.19,102.19,0,0,0,337.53,82.09Z" transform="translate(0 -0.01)"/><path class="cls-2" d="M256,372.84A116.83,116.83,0,1,1,372.82,256,117,117,0,0,1,256,372.84Zm0-204.5A87.67,87.67,0,1,0,343.66,256,87.76,87.76,0,0,0,256,168.34Z" transform="translate(0 -0.01)"/><path class="cls-2" d="M395.28,142.78A24.25,24.25,0,1,1,371,118.53,24.23,24.23,0,0,1,395.28,142.78Z" transform="translate(0 -0.01)"/></svg>