<svg width="112" height="112" viewBox="0 0 112 112" fill="none" xmlns="http://www.w3.org/2000/svg">
<path d="M109.694 55.9999C109.694 85.654 85.6544 109.693 56.0002 109.693C26.3461 109.693 2.30669 85.654 2.30669 55.9999C2.30669 26.3458 26.3461 2.30637 56.0002 2.30637C85.6544 2.30637 109.694 26.3458 109.694 55.9999Z" fill="#00303C" stroke="#B1A06B"/>
<path d="M32.0384 77.4389C32.3456 77.7497 32.5326 78.2583 32.5326 79.0494C32.5326 79.5438 32.4257 79.9393 32.2387 80.2501C32.0518 80.5609 31.8247 80.7163 31.5442 80.801C31.2637 80.8999 30.8764 80.914 30.3154 80.914H29.9414V76.9445C30.0616 76.9445 30.2085 76.9445 30.3688 76.9445C31.2103 76.9445 31.7312 77.1282 32.0384 77.4389ZM34.2289 80.5468C34.496 80.0665 34.6162 79.5438 34.6162 78.9363C34.6162 78.2441 34.4292 77.6508 34.0419 77.1564C33.6546 76.7044 33.1737 76.3512 32.586 76.1676C32.0117 75.998 31.2236 75.885 30.2219 75.885H27.978V78.8798V83.8241V86.6917H29.9414C29.9414 86.6917 29.9414 84.8271 29.6476 84.5163L29.9414 84.8129C29.9281 84.4739 29.9414 84.2479 29.9414 83.8241V81.9029H30.676C31.7579 81.9029 32.586 81.8605 33.1069 81.6062C33.5744 81.3661 33.9618 81.0271 34.2289 80.5468Z" fill="#B1A06B"/>
<path d="M40.522 77.3824C40.7892 77.7497 40.9495 78.2018 40.9495 78.8516C40.9495 79.233 40.896 79.5155 40.8159 79.7415C40.7357 79.9817 40.6289 80.1512 40.4953 80.2784C40.335 80.4479 40.1481 80.6033 39.9477 80.6739C39.8141 80.7163 39.6672 80.7728 39.5069 80.8152C39.36 80.8575 39.2131 80.8717 39.0662 80.8858H38.2514V76.9304L38.5453 76.9445C39.6806 76.9445 40.2816 77.0999 40.522 77.3824ZM40.9227 81.4791C41.4837 81.2813 41.9512 80.9847 42.2985 80.6315C42.8194 80.1088 43.0732 79.459 43.0732 78.7103C43.0732 78.0746 42.8728 77.5096 42.4721 77.0434C42.0714 76.5772 41.5639 76.3088 40.9628 76.1252C40.3618 75.9415 39.5871 75.885 38.6788 75.885H36.288V78.7527V83.6687V86.6917H38.2514V83.6687V81.8464L38.3583 81.8605C40.8025 81.8605 42.0848 85.9996 42.245 86.6917H44.0215C42.9663 83.923 42.2317 82.8776 42.2317 82.8776C41.8577 82.3549 41.4303 81.8464 40.9227 81.4791Z" fill="#B1A06B"/>
<path d="M52.0731 76.8598V75.8709H45.8623V78.7103V82.4397V83.0471V83.7535V86.6776H52.0464V85.7029H48.8007H47.8524V83.7535V83.0471V82.6657V82.4397V81.5074H48.5603H50.6172V80.5326H48.5202H47.8524V79.0211V78.7244V76.8598H48.8274H52.0731Z" fill="#B1A06B"/>
<path d="M57.6409 86.0843C58.282 85.5616 58.656 84.8412 58.7495 83.9371C58.803 83.3579 58.7362 82.8352 58.5358 82.3408C58.3488 81.8746 58.055 81.4791 57.681 81.1824C57.3337 80.914 56.7861 80.5468 56.0248 80.0665C55.2501 79.5862 54.7425 79.1906 54.5021 78.8798C54.2617 78.5973 54.1682 78.2865 54.2083 77.9334C54.235 77.6508 54.3552 77.3824 54.5956 77.1564C54.796 76.9586 55.1165 76.8456 55.6107 76.9021C56.1049 76.9586 56.519 77.1847 56.8529 77.6085C56.9464 77.7073 57.0132 77.8204 57.2669 78.2441L58.0416 77.5661C57.5474 76.8456 57.1868 76.4783 56.7995 76.2806C56.4388 76.0969 56.0381 75.9698 55.6241 75.9274C54.8628 75.8427 54.1816 76.0263 53.6206 76.4783C53.0463 76.9445 52.7257 77.5802 52.6456 78.3572C52.5921 78.8516 52.6589 79.346 52.8593 79.8263C53.0463 80.2925 53.3267 80.7021 53.7141 81.0271C54.0881 81.3378 54.6223 81.691 55.3302 82.1148C56.1183 82.581 56.5991 82.9624 56.8395 83.2732C57.0666 83.5698 57.1601 83.9088 57.12 84.3185C57.08 84.714 56.9063 85.0531 56.559 85.3497C56.2385 85.6323 55.7977 85.7735 55.2367 85.6888C54.3819 85.5475 53.9011 85.1802 53.0062 83.81L52.3384 84.5728C53.0329 85.7735 54.2617 86.5646 55.2501 86.6776C56.1851 86.7906 56.9865 86.607 57.6409 86.0843Z" fill="#B1A06B"/>
<path d="M68.6928 76.8598L68.6794 75.885H58.7421L58.7154 76.8598H61.5871H62.6957V83.6828V86.6917H64.6725V83.6828V76.8598H65.9547H68.6928Z" fill="#B1A06B"/>
<path d="M72.2604 86.6917V83.7252V78.7244V75.885H70.2836V78.7244V83.7252V86.6917H72.2604Z" fill="#B1A06B"/>
<path d="M82.442 85.4486C82.9495 84.9966 83.23 84.3326 82.9228 83.3297L83.2167 83.6404V81.7192H81.2799V83.8382C81.2799 84.2761 81.2399 84.5869 81.1197 84.8129C81.0128 85.0248 80.8258 85.2367 80.4785 85.4204C80.1446 85.604 79.7573 85.6888 79.3299 85.6888C78.4884 85.6888 77.7939 85.3639 77.2195 84.714C76.6719 84.0784 76.3647 82.9341 76.3647 81.2248C76.3647 79.5014 76.6853 78.3995 77.2462 77.8062C77.8339 77.1705 78.5285 76.8739 79.3165 76.8739C80.0778 76.8739 80.719 77.1282 81.2532 77.665C81.4002 77.8204 81.5337 77.9757 81.8676 78.4843L82.5088 77.7921V77.4813C81.6005 76.3795 80.4785 75.885 79.1696 75.885C77.6603 75.885 76.4315 76.436 75.5366 77.5802C74.6417 78.6962 74.2009 79.9958 74.2009 81.465C74.2009 82.9624 74.6684 84.2196 75.6167 85.2085C76.5517 86.1973 77.7271 86.6917 79.1295 86.6917C79.8374 86.6917 80.5854 86.5222 81.3868 86.1973C81.7073 86.0702 82.1214 85.7311 82.442 85.4486Z" fill="#B1A06B"/>
<path d="M91.2038 76.8598V75.8709H84.993V78.7103V82.4397V83.0471V83.7535V86.6776H91.1771V85.7029H87.9314H86.9831V83.7535V83.0471V82.6657V82.4397V81.5074H87.691H89.7479V80.5326H87.6509H86.9831V79.0211V78.7244V76.8598H87.9581H91.2038Z" fill="#B1A06B"/>
<path d="M48.7526 27.0917C48.7597 27.0938 48.7671 27.0958 48.7746 27.0965C48.35 26.0415 48.9594 24.6725 47.7173 23.8025C47.4851 23.6874 47.2356 23.5792 46.9681 23.4836C49.1466 24.27 48.3125 25.8754 48.7526 27.0917Z" fill="#B1A06B"/>
<path d="M47.1454 19.9203C49.0402 19.9203 50.5661 21.8786 50.5802 23.4838C50.5802 23.4747 50.581 23.4663 50.581 23.4572C50.581 21.8478 49.0489 19.8709 47.1454 19.8709C46.9986 19.8709 46.9598 19.9222 46.9695 20.0244C46.9776 19.9555 47.0247 19.9203 47.1454 19.9203Z" fill="#B1A06B"/>
<path d="M48.7746 27.0965C48.7709 27.0715 48.7682 27.0469 48.7652 27.021C47.8184 26.5704 46.9794 25.0926 46.9691 23.4836C46.9691 23.4972 46.9681 23.5115 46.9681 23.5232C46.9681 25.1481 47.818 26.6476 48.7746 27.0965Z" fill="#B1A06B"/>
<path d="M46.9681 23.4836C47.2696 23.604 47.5122 23.7437 47.7077 23.8955C49.1617 24.6979 49.9183 25.8961 50.1272 27.0965C50.3939 26.4208 50.581 25.7016 50.581 25.0021C50.581 24.9921 50.581 24.9824 50.5797 24.973C50.5747 25.6626 50.3902 26.3688 50.1272 27.0333C49.8836 25.6443 48.9124 24.2553 46.9681 23.4836Z" fill="#B1A06B"/>
<path d="M49.4659 27.0967C49.2038 25.7277 49.7004 23.9203 48.4041 23.0349C48.5635 23.1424 48.7117 23.2642 48.8499 23.3938C48.7321 23.2375 48.5856 23.0937 48.4041 22.9697C49.5759 23.7646 50.1614 25.1951 50.3083 26.6256C50.4668 25.9413 50.5782 25.2139 50.581 24.5038C50.5673 22.4168 49.085 19.8709 47.2447 19.8709C47.1275 19.8709 47.0817 19.9164 47.0739 20.006C47.0912 20.2487 47.2701 20.7113 47.2701 21.4011C47.2701 21.4129 47.2693 21.4256 47.2693 21.4371C47.2693 21.4465 47.2701 21.4559 47.2701 21.4662C47.2701 22.3696 46.982 23.3169 46.9681 23.7913C46.9828 25.2946 48.1495 26.6756 49.4659 27.0967Z" fill="#B1A06B"/>
<path d="M65.1783 26.3457C66.5234 24.9806 69.0046 24.3666 69.0728 21.9941C69.0184 24.0987 67.8254 25.8864 66.3156 27.0968C67.2156 26.8132 68.1342 26.4346 68.9487 25.9222C71.3105 24.434 73.1412 20.6491 71.81 18.2199C71.5183 17.689 71.2311 18.6283 70.0255 19.3868C68.9796 20.0465 67.6624 20.3403 67.1411 20.6697C65.4264 21.7505 64.697 24.3011 65.1783 26.3457Z" fill="#B1A06B"/>
<path d="M52.1436 24.5187C51.7529 25.0983 51.0837 25.5967 50.8896 25.8865C50.2488 26.8369 50.6609 28.1481 51.6155 28.8973C51.947 27.9277 53.1867 26.9632 52.4467 25.9163C53.106 26.8432 53.0015 27.9532 52.5212 28.903C52.9509 28.5266 53.3593 28.1043 53.6645 27.6536C54.549 26.3432 54.3672 24.1885 52.7977 23.5103C52.4536 23.362 52.5947 23.8504 52.1436 24.5187Z" fill="#B1A06B"/>
<path d="M41.5533 31.5438C41.4994 31.9503 41.9276 31.6083 42.6748 31.784C43.3233 31.9355 43.9642 32.4013 44.289 32.476C45.3525 32.7256 46.4937 31.7728 46.9681 30.5067C45.9636 30.5741 44.7371 29.7296 43.9275 30.9031C44.6428 29.8595 45.7246 29.5071 46.7469 29.5969C46.2812 29.321 45.7771 29.0852 45.2738 28.9676C43.8068 28.6217 41.8042 29.6914 41.5533 31.5438Z" fill="#B1A06B"/>
<path d="M40.5874 25.3355C41.023 26.1172 41.2696 27.1451 41.4891 27.5348C42.2031 28.8189 43.6853 29.2074 44.8091 28.6653C43.9563 27.6988 43.4572 25.7682 42.1154 25.8956C43.3043 25.7787 44.386 26.5923 45.1621 27.7031C44.9463 27.0073 44.6761 26.305 44.3377 25.6973C43.3526 23.9275 41.1057 22.7574 39.8195 24.0005C39.5378 24.2742 40.0847 24.4329 40.5874 25.3355Z" fill="#B1A06B"/>
<path d="M34.3242 35.405C34.2746 36.5168 35.4146 37.5838 36.7377 37.9353C36.4895 36.9173 37.0883 35.5769 35.7947 34.8726C36.9451 35.4953 37.4864 36.5623 37.5865 37.615C37.7711 37.1118 37.9097 36.5721 37.9332 36.0454C38.0007 34.5132 36.5891 32.5801 34.7346 32.5163C34.3278 32.5029 34.7395 32.904 34.7053 33.6863C34.6748 34.3642 34.338 35.0663 34.3242 35.405Z" fill="#B1A06B"/>
<path d="M31.4812 40.9067C31.8581 41.43 32.0029 42.1002 32.1915 42.3614C32.8113 43.2201 34.3618 43.5417 35.6364 43.2489C34.8313 42.5882 34.5205 41.3253 33.0612 41.3407C34.3562 41.3243 35.4247 41.8998 36.1293 42.6506C35.9789 42.1932 35.771 41.729 35.4776 41.3223C34.6247 40.1401 32.3425 39.2794 30.8109 40.0131C30.476 40.1749 31.0452 40.3032 31.4812 40.9067Z" fill="#B1A06B"/>
<path d="M37.9357 47.0391C37.5043 46.5914 37.0075 46.1598 36.4559 45.8288C34.8523 44.8657 31.9361 44.8687 30.765 46.3401C30.5087 46.6632 31.1847 46.5661 32.0037 47.057C32.7133 47.4829 33.2677 48.1732 33.6215 48.3859C34.7873 49.0838 36.6102 48.7882 37.7749 47.9191C36.5325 47.519 35.4517 46.2375 33.9258 46.8734C35.2778 46.3056 36.7459 46.4971 37.9357 47.0391Z" fill="#B1A06B"/>
<path d="M41.3776 46.5619C41.5004 46.0262 41.575 45.458 41.5405 44.912C41.4417 43.326 39.8815 41.4538 38.097 41.5517C37.7059 41.5739 38.1439 41.9514 38.1949 42.7609C38.2381 43.4638 37.9921 44.218 38.0139 44.5683C38.0859 45.72 39.2927 46.7202 40.6002 46.9674C40.2505 45.9386 40.6824 44.5027 39.3658 43.8905C40.5358 44.4312 41.169 45.4845 41.3776 46.5619Z" fill="#B1A06B"/>
<path d="M40.0948 50.4676C39.3466 52.2273 39.7842 55.0943 41.4716 55.9654C41.8421 56.1598 41.64 55.5117 42.0237 54.6136C42.3573 53.8349 42.982 53.1597 43.1479 52.7709C43.6909 51.4927 43.1151 49.7563 42.0481 48.7742C41.8223 50.0725 40.6662 51.3785 41.5476 52.7571C40.7627 51.5348 40.7398 50.0559 41.1191 48.7833C40.7227 49.2921 40.3531 49.8628 40.0948 50.4676Z" fill="#B1A06B"/>
<path d="M39.0571 48.7742C38.427 48.8147 37.7749 48.9208 37.1804 49.1374C35.4521 49.7702 33.8338 52.1092 34.4602 54.0475C34.6 54.4735 34.8913 53.8642 35.7728 53.5398C36.5391 53.2612 37.4477 53.2847 37.8291 53.1454C39.0839 52.6869 39.8393 51.0237 39.7319 49.5005C38.6927 50.2241 36.977 50.2214 36.6824 51.8756C36.9407 50.4052 37.9241 49.36 39.0571 48.7742Z" fill="#B1A06B"/>
<path d="M48.7218 37.9355C49.1685 37.4605 49.5978 36.9209 49.926 36.3388C50.8834 34.6448 50.8637 31.756 49.3824 30.752C49.0567 30.5329 49.1581 31.1937 48.6707 32.0563C48.2474 32.8062 47.5592 33.4291 47.3489 33.8046C46.6553 35.0332 46.9627 36.8101 47.8397 37.8716C48.2336 36.5966 49.512 35.3868 48.8663 33.9429C49.4419 35.2221 49.2593 36.699 48.7218 37.9355Z" fill="#B1A06B"/>
<path d="M46.5261 41.4834C46.0289 40.46 45.9761 38.6416 44.9071 38.5073C45.8559 38.6234 46.558 39.5508 46.9683 40.6885C46.9214 40.0257 46.8341 39.3476 46.6759 38.7425C46.2164 36.9766 44.6661 35.5159 43.4443 36.3888C43.1768 36.5826 43.5762 36.8253 43.8102 37.7238C44.014 38.5046 44.0272 39.4696 44.1296 39.858C44.4631 41.138 45.5536 41.7597 46.5261 41.4834Z" fill="#B1A06B"/>
<path d="M52.8416 40.3375C52.3279 40.6536 51.6257 40.8629 51.3694 41.0213C50.526 41.54 50.3734 42.4978 50.8433 43.181C51.4552 42.5911 52.7695 42.1768 52.5718 41.3338C52.7488 42.0802 52.2647 42.8064 51.5454 43.3546C52.0171 43.1821 52.4887 42.9747 52.888 42.7297C54.0512 42.0151 54.6916 40.532 53.7162 39.7831C53.5017 39.6187 53.4348 39.9729 52.8416 40.3375Z" fill="#B1A06B"/>
<path d="M61.7775 28.9031C61.6413 27.5559 62.3986 25.8625 61.1754 24.8377C62.2626 25.744 62.6877 27.178 62.6692 28.5568C62.9116 27.9155 63.1109 27.2266 63.1948 26.5436C63.4374 24.5551 62.2364 21.9198 60.3733 21.6805C59.965 21.629 60.3343 22.1861 60.2111 23.2016C60.1049 24.0811 59.6853 24.9675 59.6329 25.4065C59.4556 26.8498 60.4851 28.3334 61.7775 28.9031Z" fill="#B1A06B"/>
<path d="M66.42 32.9969C67.2255 31.6576 66.8895 29.5279 65.2444 28.9249C64.883 28.7932 65.0619 29.2707 64.6503 29.9544C64.2944 30.5473 63.6498 31.0707 63.4726 31.3673C62.8876 32.3391 63.4005 33.6201 64.4243 34.3224C64.6915 33.3448 65.8852 32.3328 65.0599 31.3279C65.795 32.218 65.7676 33.3237 65.3469 34.2871C65.7553 33.8949 66.1436 33.4576 66.42 32.9969Z" fill="#B1A06B"/>
<path d="M68.1484 34.3855C67.9305 34.1363 67.8684 34.6687 67.277 35.2126C66.7644 35.6841 66.062 35.9917 65.8071 36.2271C64.9657 37.0003 64.8263 38.4401 65.3108 39.4737C65.9139 38.5919 67.2325 37.98 67.0207 36.7101C67.2104 37.8356 66.7362 38.9239 66.022 39.7417C66.4931 39.4872 66.9642 39.1805 67.3645 38.8145C68.523 37.7498 69.1439 35.5256 68.1484 34.3855Z" fill="#B1A06B"/>
<path d="M74.2386 33.9822C74.8778 33.1253 76.1699 32.6102 76.0686 31.2793C76.1601 32.4599 75.6263 33.5418 74.8889 34.3224C75.3538 34.101 75.8229 33.827 76.2289 33.4844C77.4059 32.4875 78.1657 30.2444 77.3148 28.9779C77.1279 28.7006 77.0267 29.2458 76.427 29.7545C75.9058 30.1964 75.2189 30.4516 74.9591 30.6712C74.1035 31.395 73.8591 32.8717 74.2386 33.9822Z" fill="#B1A06B"/>
<path d="M77.741 42.8871C78.4159 42.0733 79.6485 41.728 79.6986 40.2914C79.6574 41.5667 79.0533 42.6377 78.297 43.3547C78.7435 43.1918 79.2018 42.9728 79.607 42.6715C80.7878 41.7941 81.7221 39.52 81.0834 38.0317C80.9414 37.7067 80.793 38.2719 80.1903 38.7199C79.6689 39.1086 79.0159 39.2723 78.7554 39.4657C77.8985 40.1031 77.5165 41.6408 77.741 42.8871Z" fill="#B1A06B"/>
<path d="M79.4838 43.8599C79.5028 43.4515 79.0974 43.8535 78.3198 43.7942C77.6456 43.7435 76.9524 43.3843 76.6167 43.3593C75.5094 43.276 74.4327 44.3859 74.0651 45.7044C75.0823 45.4831 76.4076 46.1276 77.1239 44.8507C76.4903 45.9858 75.4208 46.4971 74.3733 46.5646C74.8718 46.7646 75.4064 46.9199 75.931 46.9609C77.4539 47.0763 79.3967 45.7209 79.4838 43.8599Z" fill="#B1A06B"/>
<path d="M71.8226 45.1611C72.2886 44.8501 72.75 44.4884 73.1202 44.0824C74.1988 42.9028 74.5024 40.7096 73.2373 39.7861C72.9579 39.5853 72.9789 40.097 72.4286 40.6987C71.9525 41.2207 71.2428 41.6195 71.0057 41.8791C70.2228 42.7367 70.3123 44.1171 71.0073 45.0176C71.5156 44.0925 72.8411 43.3152 72.3992 42.1503C72.7938 43.1826 72.4575 44.2831 71.8226 45.1611Z" fill="#B1A06B"/>
<path d="M72.3989 34.9246C72.7942 35.9572 72.4583 37.0571 71.8219 37.9353C72.2901 37.6241 72.7483 37.2633 73.1219 36.8568C74.1987 35.6767 74.5024 33.4835 73.2365 32.5601C72.9561 32.3601 72.9778 32.8706 72.4286 33.473C71.9525 33.9951 71.2435 34.3937 71.0044 34.6531C70.224 35.5112 70.3111 36.8914 71.0085 37.7918C71.516 36.8664 72.8396 36.0895 72.3989 34.9246Z" fill="#B1A06B"/>
<path d="M70.4517 49.601C70.6738 50.0652 70.9491 50.534 71.2921 50.9402C72.2901 52.1172 74.5342 52.8758 75.7977 52.0215C76.0716 51.8331 75.5272 51.7338 75.0187 51.1335C74.5763 50.6127 74.32 49.9257 74.0997 49.6656C73.3744 48.8102 71.8996 48.5689 70.7901 48.9485C71.6479 49.5877 72.1654 50.8797 73.4955 50.7764C72.3168 50.8706 71.2338 50.3372 70.4517 49.601Z" fill="#B1A06B"/>
<path d="M73.528 25.0231C73.1611 26.0345 72.1466 26.7282 71.0279 27.0965C71.6272 27.0887 72.248 27.0382 72.8291 26.9074C74.5126 26.5257 76.2341 24.9562 75.8043 23.5891C75.7096 23.2898 75.3843 23.703 74.5242 23.897C73.7786 24.0664 72.9254 24.0193 72.5537 24.1044C71.3301 24.3806 70.4767 25.5102 70.4517 26.5701C71.4907 26.1022 73.1112 26.1626 73.528 25.0231Z" fill="#B1A06B"/>
<path d="M67.8217 34.3225C68.2954 33.9839 68.7659 33.5766 69.1652 33.0889C70.3239 31.6719 70.9497 28.7051 69.9599 27.1809C69.7422 26.8484 69.6802 27.5589 69.0896 28.2817C68.5746 28.9091 67.8718 29.3175 67.6158 29.6315C66.7754 30.6595 66.6319 32.5819 67.1127 33.9625C67.7194 32.7876 69.035 31.974 68.8279 30.2792C69.0159 31.7833 68.5379 33.2339 67.8217 34.3225Z" fill="#B1A06B"/>
<path d="M57.0353 23.4784C57.3659 22.5084 58.6075 21.5434 57.8656 20.4966C58.527 21.4239 58.4204 22.5351 57.9404 23.4839C58.3692 23.108 58.7786 22.6849 59.0837 22.2341C59.9674 20.9245 59.788 18.7693 58.2178 18.0913C57.8733 17.9427 58.0132 18.4311 57.5625 19.0997C57.1728 19.6791 56.5038 20.178 56.3091 20.4675C55.6677 21.4184 56.081 22.7289 57.0353 23.4784Z" fill="#B1A06B"/>
<path d="M65.2315 16.8236C65.3056 18.0155 64.7608 19.0955 64.02 19.8708C64.483 19.6557 64.9521 19.387 65.3577 19.0496C66.5381 18.0674 67.3218 15.8211 66.4994 14.5287C66.3188 14.246 66.2108 14.793 65.6094 15.2951C65.0876 15.7296 64.4027 15.9736 64.1435 16.192C63.2857 16.9048 63.0233 18.3881 63.3829 19.515C64.0262 18.662 65.3133 18.168 65.2315 16.8236Z" fill="#B1A06B"/>
<path d="M56.1742 16.8424C56.41 17.9462 55.9626 19.0384 55.2638 19.8708C55.7353 19.6018 56.2077 19.2815 56.6032 18.9063C57.7468 17.8145 58.3017 15.5972 57.2418 14.5099C57.0116 14.2721 56.9672 14.7998 56.3834 15.3576C55.8758 15.8414 55.1685 16.1709 54.9158 16.413C54.0843 17.2058 53.9944 18.632 54.5278 19.6322C55.1135 18.7401 56.4369 18.0877 56.1742 16.8424Z" fill="#B1A06B"/>
<path d="M49.4949 20.3418C49.8091 21.1695 50.9116 21.705 51.9153 21.6764C51.4269 20.9827 51.4138 19.8684 50.32 19.6322C51.291 19.8398 51.99 20.506 52.387 21.2576C52.3537 20.8487 52.2781 20.4222 52.13 20.0294C51.6978 18.8906 50.1411 17.7757 48.8684 18.1321C48.5901 18.2104 48.9955 18.4158 49.215 18.9976C49.407 19.5017 49.3989 20.0908 49.4949 20.3418Z" fill="#B1A06B"/>
<path d="M36.7169 28.4338C37.0257 28.9503 37.2219 29.6493 37.3764 29.9062C37.8827 30.7503 38.8491 30.9185 39.551 30.4613C38.9667 29.8482 38.5747 28.5357 37.7183 28.7186C38.4783 28.5539 39.2028 29.0459 39.7422 29.7677C39.5773 29.2976 39.3778 28.8249 39.1379 28.4238C38.4404 27.2583 36.9539 26.5986 36.1733 27.5566C36.0024 27.7668 36.3606 27.8393 36.7169 28.4338Z" fill="#B1A06B"/>
<path d="M60.334 18.5353C60.6478 19.3629 61.7505 19.8983 62.7545 19.8696C62.2653 19.1766 62.2513 18.0619 61.1606 17.8254C62.1288 18.0338 62.8291 18.7004 63.2258 19.4511C63.1921 19.042 63.1174 18.615 62.9692 18.2227C62.5351 17.0834 60.9786 15.9694 59.7083 16.3252C59.4283 16.4032 59.8324 16.6091 60.0534 17.19C60.245 17.695 60.2373 18.2845 60.334 18.5353Z" fill="#B1A06B"/>
<path d="M42.2181 21.7495C42.5912 22.1801 42.8976 22.8723 43.0836 23.086C43.6941 23.791 44.5842 23.5062 45.1228 22.6465C44.487 22.2416 43.8906 20.9553 43.1639 21.58C43.8081 21.0232 44.5462 21.2234 45.1616 21.7716C44.927 21.3218 44.6601 20.8877 44.3708 20.5514C43.5292 19.5833 42.0836 19.5677 41.5709 21.0292C41.4582 21.3474 41.79 21.2564 42.2181 21.7495Z" fill="#B1A06B"/>
<path d="M42.826 33.4147C42.9425 33.6224 43.0507 33.8603 43.1506 34.1093C43.2205 34.174 43.2894 34.2445 43.3552 34.3224C43.1936 33.9211 43.0076 33.5306 42.8035 33.2214C42.4669 32.715 41.9816 32.45 41.5487 32.5301C41.9975 32.4886 42.4972 32.8327 42.826 33.4147Z" fill="#B1A06B"/>
<path d="M59.342 28.7271C59.4603 28.4062 59.5588 28.0591 59.5999 27.7164C59.7132 26.7192 59.1024 25.4045 58.1719 25.2917C57.9684 25.2674 58.1554 25.5461 58.0965 26.0538C58.0456 26.4951 57.8405 26.9398 57.8158 27.1597C57.7322 27.883 58.2507 28.6226 58.8991 28.9032C58.8251 28.2293 59.1979 27.3788 58.5839 26.8693C59.1303 27.3188 59.3468 28.0363 59.342 28.7271Z" fill="#B1A06B"/>
<path d="M61.4194 42.8641C61.3847 42.4369 61.33 41.9946 61.2442 41.5949C60.9915 40.4327 60.2232 39.3859 59.6529 39.8575C59.528 39.961 59.7242 40.1465 59.8528 40.7388C59.964 41.2533 59.9869 41.8714 60.0434 42.1274C60.2269 42.9711 60.7598 43.4475 61.2213 43.3395C60.9641 42.6501 60.9057 41.4817 60.391 41.3176C60.8481 41.4601 61.2012 42.1058 61.4194 42.8641Z" fill="#B1A06B"/>
<path d="M61.2024 37.7355C61.3071 37.4066 61.3896 37.0513 61.4145 36.7031C61.4831 35.6921 60.8187 34.3939 59.8887 34.323C59.6851 34.3078 59.8833 34.5802 59.8473 35.0959C59.8157 35.5437 59.63 36.0022 59.6162 36.2251C59.5653 36.9603 60.1129 37.6816 60.7705 37.9353C60.6658 37.2581 60.9987 36.3813 60.3675 35.8955C60.93 36.324 61.1762 37.0391 61.2024 37.7355Z" fill="#B1A06B"/>
<path d="M53.4404 48.7542C53.6464 48.4942 53.8403 48.2012 53.9814 47.896C54.386 47.0034 54.2233 45.5822 53.4049 45.1763C53.2244 45.087 53.312 45.4064 53.1054 45.8616C52.9255 46.256 52.6013 46.6039 52.5129 46.8007C52.2181 47.4489 52.4709 48.3036 52.9811 48.7742C53.1162 48.123 53.7138 47.4503 53.3061 46.7774C53.6699 47.3736 53.6531 48.1127 53.4404 48.7542Z" fill="#B1A06B"/>
<path d="M41.4475 38.1435C41.2506 37.0164 40.4675 35.8762 39.7942 36.1779C39.6469 36.2423 39.8524 36.458 39.9525 37.0339C40.0395 37.5304 40.0189 38.1046 40.0633 38.3526C40.2054 39.1715 40.7665 39.7324 41.2915 39.7416C41.0555 39.0482 41.0771 37.9609 40.5136 37.69C41.0143 37.9287 41.3616 38.6046 41.5492 39.35C41.5417 38.9507 41.5139 38.5319 41.4475 38.1435Z" fill="#B1A06B"/>
<path d="M41.5492 32.516C40.8515 32.5767 40.208 33.0441 39.7918 34.043C39.7446 34.1553 39.734 34.2428 39.7491 34.3224C40.148 33.2145 40.8142 32.6472 41.5492 32.516Z" fill="#B1A06B"/>
<path d="M43.3556 35.5383C43.3049 35.5016 43.2554 35.4622 43.2044 35.4214C42.4085 36.0764 41.2999 36.1718 40.5497 35.4335C40.3594 35.2473 40.0839 34.7632 39.7427 34.3224C40.0432 34.7833 40.2791 35.2688 40.453 35.4656C41.2354 36.3716 42.511 36.3039 43.3556 35.5383Z" fill="#B1A06B"/>
<path d="M41.3093 34.0851C41.8876 34.4239 42.7421 34.3801 43.3556 34.0796C42.7536 33.78 42.2298 33.1793 41.4451 33.3802C41.6276 33.3333 41.8125 33.309 41.9973 33.3046C41.8233 33.281 41.6423 33.2916 41.4491 33.3552C42.0603 33.1531 42.7267 33.2211 43.3121 33.4288C43.1641 33.2852 43.0038 33.148 42.8313 33.0282C42.3442 32.6926 41.6041 32.4941 40.94 32.5179C40.4514 32.5528 40.008 32.7037 39.7427 32.9984C39.7826 33.0763 40.0787 33.1211 40.4115 33.3514C40.5103 33.4201 40.6017 33.4967 40.6875 33.5753C40.9503 33.7776 41.1627 33.9997 41.3093 34.0851Z" fill="#B1A06B"/>
<path d="M45.3208 51.5153C44.9622 52.4265 45.2086 53.8282 46.0621 54.182C46.2496 54.2583 46.1409 53.9473 46.3264 53.4811C46.486 53.08 46.7945 52.7142 46.872 52.5132C47.1349 51.8517 46.8304 51.0171 46.2856 50.5806C46.185 51.2357 45.6169 51.9406 46.0694 52.5845C45.6657 52.0149 45.6426 51.2786 45.82 50.6293C45.6279 50.9006 45.4465 51.2017 45.3208 51.5153Z" fill="#B1A06B"/>
<path d="M69.645 41.5418C69.8582 41.2872 70.058 41.0018 70.2078 40.6988C70.6352 39.8182 70.5175 38.3862 69.7193 37.9518C69.5446 37.8574 69.6228 38.1806 69.403 38.6292C69.2136 39.0193 68.8828 39.3573 68.7874 39.5518C68.4775 40.1912 68.7013 41.0586 69.191 41.5483C69.3459 40.899 69.9575 40.2444 69.5723 39.5559C69.9151 40.1644 69.874 40.9052 69.645 41.5418Z" fill="#B1A06B"/>
<path d="M64.3358 48.7742C64.102 49.0877 63.8718 49.4526 63.6877 49.8608C63.1535 51.0476 63.0105 53.239 63.6513 54.1496C63.793 54.3493 63.7797 53.8382 64.0523 53.2337C64.2897 52.7086 64.6433 52.306 64.7633 52.0442C65.1511 51.1821 65.0988 49.8065 64.744 48.9111C64.4946 49.839 63.8332 50.6247 64.0596 51.7854C63.8563 50.7574 64.0196 49.6567 64.3358 48.7742Z" fill="#B1A06B"/>
<path d="M76.6382 37.9353C76.8694 37.7145 77.0944 37.4601 77.2706 37.1805C77.7862 36.367 77.8684 34.9122 77.1862 34.3481C77.0359 34.2247 77.0645 34.5623 76.8022 34.9767C76.5736 35.337 76.222 35.6229 76.1075 35.8023C75.7349 36.394 75.8267 37.2976 76.2156 37.8687C76.4454 37.2423 77.1017 36.6848 76.8357 35.9322C77.0731 36.5989 76.9365 37.3337 76.6382 37.9353Z" fill="#B1A06B"/>
<path d="M70.4488 50.4679C70.5185 49.7286 69.399 49.0152 68.0798 48.7742C68.3107 49.4522 67.6774 50.3401 68.9607 50.8151C67.8221 50.3959 67.3021 49.683 67.227 48.9825C67.0297 49.3157 66.8805 49.6749 66.844 50.0239C66.7455 51.0427 68.1157 52.3349 69.9744 52.3868C70.3815 52.3981 69.9744 52.1281 70.0273 51.6088C70.0709 51.1578 70.4274 50.693 70.4488 50.4679Z" fill="#B1A06B"/>
<path d="M73.4119 27.6767C73.1529 27.9809 72.8039 28.1689 72.6766 28.321C72.2516 28.8201 72.1531 29.7916 72.3694 30.507C72.6798 29.9269 73.3339 29.5502 73.2567 28.6842C73.3263 29.4515 73.0726 30.1762 72.7077 30.7096C72.9432 30.5513 73.1797 30.3564 73.381 30.1209C73.9653 29.4332 74.3131 27.9435 73.8518 27.1423C73.7513 26.9675 73.7094 27.3268 73.4119 27.6767Z" fill="#B1A06B"/>
<path d="M60.6478 69.316C57.5825 64.6214 58.4445 59.065 58.701 57.6415C60.0423 50.2184 66.3032 47.1235 68.5648 47.0167C70.6706 46.9167 72.0718 47.3311 73.4293 47.9144C75.6131 48.8526 71.7455 46.0655 68.2692 46.0655C60.3895 46.0655 64.4879 49.7331 64.4879 41.8555C64.4879 39.25 63.6989 36.629 62.0962 34.527C62.7715 36.1541 63.4128 37.9134 63.2976 39.6875C63.0264 43.8023 57.7999 56.6089 58.4136 40.7853C58.6233 35.3813 60.1299 30.1696 65.7995 27.9225C61.1704 28.1285 57.2608 32.4632 56.0268 36.6943C54.3812 32.463 50.9869 29.6768 47.4903 27.0966C52.5528 33.513 55.7848 36.5495 55.8011 45.708C55.8239 58.7264 50.2318 49.7811 50.2318 43.7019C50.2318 41.3922 50.7976 39.0577 51.8101 37.1071C49.9428 38.6742 48.1869 41.2697 48.212 44.6449C48.2721 52.6836 51.8417 47.2284 42.1208 47.9697C28.4519 49.0113 52.574 46.827 53.3891 58.166C53.4361 58.8143 54.6799 64.6184 52.0105 70.4515C52.4003 70.4497 53.7535 69.316 55.3494 69.0571C58.0109 68.6269 58.9834 69.2866 60.6478 69.316Z" fill="#B1A06B"/>
<path d="M21.3461 63.4056C21.8411 63.4056 22.2143 63.5771 22.4659 63.9201C22.7256 64.2546 22.8554 64.7434 22.8554 65.3866C22.8554 66.0898 22.6972 66.8359 22.3807 67.6249C22.0723 68.4053 21.6301 69.0657 21.054 69.606C20.4778 70.1462 19.8165 70.4164 19.0699 70.4164C18.8427 70.4164 18.6358 70.3692 18.4491 70.2749C18.2625 70.1805 18.1246 70.0476 18.0353 69.8761C17.8081 69.8932 17.5647 69.9533 17.305 70.0562C17.0534 70.1505 16.7654 70.2792 16.4408 70.4421L16.2582 70.3521C16.3637 70.1205 16.4489 69.8675 16.5138 69.5931L18.7169 61.6561C18.7494 61.5446 18.7656 61.4245 18.7656 61.2959C18.7656 61.1244 18.7048 61 18.583 60.9229C18.4613 60.8457 18.2503 60.8071 17.9501 60.8071L18.0231 60.5369C18.583 60.5284 19.0861 60.4812 19.5325 60.3954C19.9788 60.3097 20.4129 60.181 20.8349 60.0095L19.4107 65.2322C19.711 64.5976 20.0153 64.1345 20.3236 63.8429C20.632 63.5514 20.9728 63.4056 21.3461 63.4056ZM18.7291 70.0433C19.1105 70.0433 19.4838 69.7689 19.8489 69.22C20.2141 68.6712 20.5103 67.998 20.7375 67.2004C20.9647 66.3943 21.0783 65.6525 21.0783 64.975C21.0783 64.6577 21.0418 64.4304 20.9687 64.2932C20.9038 64.156 20.8024 64.0874 20.6644 64.0874C20.4372 64.0874 20.1816 64.3018 19.8976 64.7306C19.6217 65.1508 19.358 65.6996 19.1064 66.3771L18.1814 69.7603C18.3355 69.949 18.5181 70.0433 18.7291 70.0433Z" fill="#B1A06B"/>
<path d="M28.1 63.4056C28.6356 63.4056 28.9034 63.7958 28.9034 64.5762C28.9034 65.348 28.668 66.2699 28.1974 67.3419C27.7267 68.4053 27.1628 69.353 26.5055 70.1848C26.0916 70.708 25.6332 71.1711 25.13 71.5741C24.635 71.9772 24.1238 72.2731 23.5964 72.4617C23.2718 72.5904 22.9837 72.6547 22.7322 72.6547C22.4725 72.6547 22.2696 72.5904 22.1236 72.4617C21.9694 72.3331 21.8923 72.1573 21.8923 71.9343C21.8923 71.7028 21.9734 71.5098 22.1357 71.3554C22.2899 71.2096 22.4887 71.1367 22.7322 71.1367C23.2109 71.1367 23.6451 71.4326 24.0346 72.0244C24.6188 71.7242 25.1463 71.3297 25.6169 70.8409L24.6675 64.692C24.6269 64.4518 24.5823 64.2932 24.5336 64.216C24.493 64.1302 24.4322 64.0874 24.351 64.0874C24.2618 64.0874 24.1766 64.1517 24.0954 64.2803C24.0143 64.409 23.9088 64.6619 23.779 65.0393L23.5599 65.6696H23.3286L23.6329 64.7306C23.7952 64.2417 23.998 63.8987 24.2415 63.7014C24.493 63.5042 24.7892 63.4056 25.13 63.4056C25.479 63.4056 25.7508 63.5085 25.9456 63.7143C26.1403 63.9201 26.2742 64.2803 26.3472 64.7949L26.9072 69.2072C27.2642 68.6669 27.5726 68.118 27.8322 67.5606C28.0919 66.9946 28.2826 66.4543 28.4043 65.9398C28.0716 65.7511 27.7998 65.511 27.5888 65.2194C27.3778 64.9278 27.2764 64.6148 27.2845 64.2803C27.2845 64.0145 27.3575 63.8044 27.5036 63.65C27.6496 63.487 27.8485 63.4056 28.1 63.4056Z" fill="#B1A06B"/>
</svg>
