<svg id="Calque_2" data-name="Calque 2" xmlns="http://www.w3.org/2000/svg" viewBox="0 0 512 512"><defs><style>.cls-1{fill:#fff;}.cls-2{fill:none;stroke:#fff;stroke-miterlimit:10;stroke-width:4px;}</style></defs><path class="cls-1" d="M256,0C114.58,0,0,114.58,0,256S114.58,512,256,512,512,397.36,512,256,397.36,0,256,0ZM379.7,340.61a31.39,31.39,0,0,1-31.48,31.3H163.6a31.31,31.31,0,0,1-31.3-31.3V207.89a31.35,31.35,0,0,1,31.3-31.3,46.17,46.17,0,0,0,17.89-7.5A47.08,47.08,0,0,0,194.78,155a31.35,31.35,0,0,1,26.7-14.95H290.4a31.34,31.34,0,0,1,26.88,15.12,46.44,46.44,0,0,0,30.94,21.38,31.39,31.39,0,0,1,22.27,9.22,30.9,30.9,0,0,1,9.21,22.08Z"/><circle class="cls-2" cx="255.99" cy="274.26" r="51.35"/></svg>