<svg xmlns="http://www.w3.org/2000/svg" viewBox="0 0 141.73 141.73"><defs><style>.cls-1{fill:#a0afc1;}.cls-2{fill:#fff;}.cls-3{fill:#4a494a;}</style></defs><g id="Calque_1" data-name="Calque 1"><circle class="cls-1" cx="66.06" cy="51.8" r="43.35"/></g><g id="Calque_2" data-name="Calque 2"><polygon class="cls-2" points="90.04 32.94 90.04 62.19 64.32 62.19 51.23 73.25 51.23 32.94 90.04 32.94"/><polygon class="cls-1" points="83.4 54.12 78.58 49.9 78.58 55.51 59.62 55.51 59.62 40.33 78.58 40.33 78.58 45.73 83.23 41.54 83.4 54.12"/><path class="cls-3" d="M23.1,113.79a21.24,21.24,0,0,1,4-.34c2.23,0,3.66.41,4.67,1.32A4,4,0,0,1,33,117.83,4.24,4.24,0,0,1,30,122V122c1.24.43,2,1.58,2.37,3.26a25.94,25.94,0,0,0,1.24,4.43H31.46a20.15,20.15,0,0,1-1.08-3.86c-.48-2.22-1.34-3.06-3.23-3.13h-2v7H23.1Zm2.08,7.34h2.14c2.22,0,3.63-1.22,3.63-3.06,0-2.08-1.5-3-3.71-3a8.3,8.3,0,0,0-2.06.2Z"/><path class="cls-3" d="M46,112.71v14c0,1,0,2.21.1,3h-1.9l-.09-2h-.05A4.28,4.28,0,0,1,40.13,130c-2.8,0-5-2.37-5-5.89,0-3.85,2.37-6.22,5.2-6.22a3.87,3.87,0,0,1,3.5,1.77h0v-6.92Zm-2.11,10.12a3.76,3.76,0,0,0-.09-.88,3.1,3.1,0,0,0-3-2.44c-2.18,0-3.48,1.91-3.48,4.47,0,2.35,1.15,4.29,3.43,4.29a3.17,3.17,0,0,0,3.09-2.51,3.8,3.8,0,0,0,.09-.91Z"/><path class="cls-3" d="M50.34,118.12l2.27,6.51a30.42,30.42,0,0,1,.94,3h.07c.26-1,.6-1.92,1-3l2.25-6.51h2.2L54.5,129.71h-2l-4.4-11.59Z"/><path class="cls-3" d="M66.94,118.12l2.27,6.51a27.92,27.92,0,0,1,.94,3h.07c.26-1,.6-1.92,1-3l2.25-6.51h2.2L71.1,129.71h-2l-4.4-11.59Z"/><path class="cls-3" d="M80,114.86a1.24,1.24,0,0,1-1.34,1.3,1.26,1.26,0,0,1-1.27-1.3,1.28,1.28,0,0,1,1.32-1.31A1.24,1.24,0,0,1,80,114.86Zm-2.34,14.85V118.12h2.1v11.59Z"/><path class="cls-3" d="M83,127.55a5.54,5.54,0,0,0,2.78.84c1.53,0,2.25-.77,2.25-1.72s-.6-1.56-2.15-2.14c-2.09-.74-3.07-1.89-3.07-3.27,0-1.87,1.51-3.4,4-3.4a5.85,5.85,0,0,1,2.85.71l-.53,1.54a4.45,4.45,0,0,0-2.37-.68c-1.24,0-1.94.72-1.94,1.59s.7,1.38,2.21,2c2,.76,3,1.77,3,3.49,0,2-1.58,3.48-4.34,3.48a6.67,6.67,0,0,1-3.25-.79Z"/><path class="cls-3" d="M95.08,114.86a1.24,1.24,0,0,1-1.34,1.3,1.26,1.26,0,0,1-1.27-1.3,1.28,1.28,0,0,1,1.32-1.31A1.24,1.24,0,0,1,95.08,114.86Zm-2.34,14.85V118.12h2.1v11.59Z"/><path class="cls-3" d="M108.83,123.82c0,4.28-3,6.15-5.77,6.15-3.14,0-5.56-2.3-5.56-6,0-3.88,2.54-6.15,5.75-6.15S108.83,120.27,108.83,123.82Zm-9.2.12c0,2.53,1.47,4.45,3.52,4.45s3.52-1.89,3.52-4.5c0-2-1-4.46-3.47-4.46S99.63,121.73,99.63,123.94Z"/></g></svg>