<svg id="Calque_1" data-name="Calque 1" xmlns="http://www.w3.org/2000/svg" viewBox="0 0 512 512"><defs><style>.cls-1{fill:#555454;}.cls-2{fill:#fff;}</style></defs><path class="cls-1" d="M512,424.5A87.49,87.49,0,0,1,424.5,512h-337A87.49,87.49,0,0,1,0,424.5v-337A87.49,87.49,0,0,1,87.49,0h337A87.49,87.49,0,0,1,512,87.49Z"/><path class="cls-2" d="M435,115.44Z"/><path class="cls-2" d="M420.94,151.92a47.94,47.94,0,0,1-13.89,1.82l.25-1.48c7.23-5.79,25.48-23.56,27.89-31.87,1.05-3.59-.19-4.83-.2-5l-23.3,9.9-19.5,8.8h0c-13.47-14.25-33.84-23.33-56.62-23.33-40.54,0-73.41,28.71-73.41,64.15,0,6.48,1,18.3,3,24.2,0,1.86.07-1.86,0,0-26.11-.72-59.57-11.42-89.36-26.52-58.78-29.78-62.46-50.39-62.46-50.39-9.23,9.8-14,42.26-4.64,67.71,6,16.29,26.58,30.91,26.58,30.91h0a62.43,62.43,0,0,1-18.85-3.09c-9.65-3.26-13.29-6.49-13.29-6.49-5.74,14,5.77,39,25.66,56.89,11.59,10.45,32.77,17,32.77,17l-33.08.93c-1.86,32.15,67.43,51.25,67.43,51.25h0C175.61,353,152,362.49,126.79,362.49A131.87,131.87,0,0,1,89,357c33.37,27.49,76.26,46.48,122.89,44,123.71-6.51,193.55-112.85,196.87-217.29l.16.21s5.8-2.89,18.19-15.28a128.25,128.25,0,0,0,20.1-26.9S428.72,149.78,420.94,151.92Z"/><path class="cls-2" d="M435,115.45c.09,2,0,.19,0,0Z"/></svg>