<svg width="142" height="123" viewBox="0 0 142 123" fill="none" xmlns="http://www.w3.org/2000/svg">
<rect width="142" height="123" fill="#E5E5E5"/>
<path d="M126.042 23.4501H116.406C111.184 6.55203 104.552 0 91.593 0H49.0586C36.0993 0 29.4295 8.39138 24.9195 23.4501H15.9576C7.14472 23.4501 0 30.5527 0 39.3142V107.137C0 115.897 7.14472 123 15.9576 123H126.042C134.855 123 142 115.897 142 107.137V39.3142C142 30.5527 134.856 23.4501 126.042 23.4501ZM70.6917 111.562C47.754 111.562 29.1597 93.077 29.1597 70.2746C29.1597 47.4722 47.754 28.9876 70.6917 28.9876C93.6294 28.9876 112.224 47.4722 112.224 70.2746C112.224 93.077 93.6294 111.562 70.6917 111.562Z" fill="white"/>
<path d="M71 95.0665C84.7627 95.0665 95.9195 83.9755 95.9195 70.2941C95.9195 56.6126 84.7627 45.5216 71 45.5216C57.2373 45.5216 46.0805 56.6126 46.0805 70.2941C46.0805 83.9755 57.2373 95.0665 71 95.0665Z" fill="white"/>
</svg>
