<svg id="Calque_3" data-name="Calque 3" xmlns="http://www.w3.org/2000/svg" viewBox="0 0 300.04 300.46"><defs><style>.cls-1{fill:#3b4754;}</style></defs><polygon class="cls-1" points="210.02 158.25 193.34 143.63 193.34 163.07 127.71 163.07 127.71 110.46 193.34 110.46 193.34 129.17 209.43 114.65 210.02 158.25"/><polygon class="cls-1" points="193.34 163.07 127.71 163.07 127.71 110.46 193.34 110.46 193.34 129.17 209.43 114.65 210.02 158.25 193.34 143.63 193.34 163.07"/><path class="cls-1" d="M150-.46C67.11-.46,0,66.78,0,149.75S67.11,300,150,300s150-67.27,150-150.25S232.82-.46,150-.46Zm83,186.22h-89L98.64,224.1V84.39H233Z" transform="translate(0.04 0.46)"/></svg>